<svg width="56" height="34" viewBox="0 0 56 34" fill="none" xmlns="http://www.w3.org/2000/svg">
<path fill-rule="evenodd" clip-rule="evenodd" d="M2.92722 4.09567C3.18284 1.76486 5.15182 0 7.49661 0H25.7099H37.752C39.6821 0 41.4067 1.20574 42.0693 3.01853L44.1367 8.6737C44.3388 9.22666 44.7935 9.64938 45.3597 9.81072L52.3355 11.7985C54.3105 12.3612 55.6726 14.1657 55.6726 16.2193V22.9839C55.6726 25.5227 53.6145 27.5807 51.0758 27.5807H45.8814C45.2426 30.728 42.46 33.0969 39.1242 33.0969C35.7883 33.0969 33.0058 30.728 32.3669 27.5807H25.7099H23.8169C23.178 30.728 20.3955 33.0969 17.0596 33.0969C13.7238 33.0969 10.9412 30.728 10.3024 27.5807H5.48013C2.74301 27.5807 0.612355 25.2036 0.91074 22.4828L2.92722 4.09567ZM35.2225 27.5807C35.7904 29.1876 37.3228 30.3388 39.1242 30.3388C40.9255 30.3388 42.458 29.1876 43.0259 27.5807H35.2225ZM43.0259 24.8226H35.2225C35.7905 23.2158 37.3229 22.0646 39.1242 22.0646C40.9255 22.0646 42.4579 23.2158 43.0259 24.8226ZM45.8814 24.8226C45.2425 21.6754 42.46 19.3065 39.1242 19.3065C35.7884 19.3065 33.0058 21.6754 32.3669 24.8226H25.7099H23.8169C23.178 21.6754 20.3954 19.3065 17.0596 19.3065C13.7238 19.3065 10.9413 21.6754 10.3024 24.8226H5.48013C4.38528 24.8226 3.53302 23.8718 3.65237 22.7835L5.66886 4.39634C5.7711 3.46401 6.5587 2.75807 7.49661 2.75807H25.7099H37.752C38.524 2.75807 39.2139 3.24037 39.4789 3.96548L41.5462 9.62065C42.0516 11.003 43.1884 12.0599 44.6039 12.4632L51.5797 14.451C52.3697 14.6761 52.9145 15.3979 52.9145 16.2193V22.9839C52.9145 23.9994 52.0913 24.8226 51.0758 24.8226H45.8814ZM17.0596 22.0646C15.2583 22.0646 13.7259 23.2158 13.1579 24.8226H20.9613C20.3933 23.2158 18.8609 22.0646 17.0596 22.0646ZM17.0596 30.3388C18.861 30.3388 20.3934 29.1876 20.9613 27.5807H13.1579C13.7258 29.1876 15.2583 30.3388 17.0596 30.3388Z" fill="white"/>
<circle cx="17.0595" cy="26.2017" r="4.13711" fill="white"/>
<circle cx="39.1239" cy="26.2017" r="4.13711" fill="white"/>
</svg>
