<svg width="60" height="60" viewBox="0 0 60 60" fill="none" xmlns="http://www.w3.org/2000/svg">
<mask id="path-1-inside-1" fill="white">
<path fill-rule="evenodd" clip-rule="evenodd" d="M12.5 10H8.77072C7.77101 10.0012 6.81259 10.4093 6.10569 11.1348C5.39879 11.8603 5.00115 12.844 5 13.8701V40.9218C5.00115 41.9479 5.39879 42.9316 6.10569 43.6571C6.81259 44.3826 7.77101 44.7907 8.77072 44.7919H11.5905C11.7995 46.2396 12.5085 47.562 13.5882 48.518C14.6679 49.4741 16.0464 50 17.4724 50C18.8983 50 20.2768 49.4741 21.3565 48.518C22.4362 47.562 23.1452 46.2396 23.3543 44.7919H39.1457C39.3548 46.2396 40.0638 47.562 41.1435 48.518C42.2232 49.4741 43.6017 50 45.0276 50C46.4536 50 47.8321 49.4741 48.9118 48.518C49.9915 47.562 50.7005 46.2396 50.9095 44.7919H53.7293C54.729 44.7907 55.6874 44.3826 56.3943 43.6571C57.1012 42.9316 57.4988 41.9479 57.5 40.9218V27.5895C57.4997 27.5487 57.4967 27.508 57.491 27.4677L57.4877 27.4452C57.4799 27.3954 57.4679 27.3464 57.4519 27.2988C57.4499 27.2929 57.4478 27.2871 57.4457 27.2813L57.4447 27.2788C57.4274 27.2307 57.406 27.1841 57.3808 27.1398C57.3773 27.1337 57.3737 27.1276 57.3699 27.1215C57.3428 27.0762 57.3117 27.0336 57.2771 26.9941L57.2709 26.9856L49.7995 18.6305C49.4459 18.236 49.0165 17.9209 48.5384 17.7052C48.0603 17.4895 47.5438 17.3778 47.0215 17.3772H36.25V13.8701C36.2488 12.844 35.8512 11.8603 35.1443 11.1348C34.4374 10.4093 33.479 10.0012 32.4793 10H28.75V11.7862H32.4793C33.0176 11.7868 33.5336 12.0066 33.9143 12.3972C34.2949 12.7879 34.509 13.3176 34.5096 13.8701V43.0057H23.3543C23.1452 41.558 22.4362 40.2356 21.3565 39.2796C20.2768 38.3236 18.8983 37.7976 17.4724 37.7976C16.0464 37.7976 14.6679 38.3236 13.5882 39.2796C12.5085 40.2356 11.7995 41.558 11.5905 43.0057H8.77072C8.23241 43.0051 7.71634 42.7853 7.3357 42.3947C6.95506 42.004 6.74094 41.4743 6.74033 40.9218V13.8701C6.74094 13.3176 6.95506 12.7879 7.3357 12.3972C7.71634 12.0066 8.23241 11.7868 8.77072 11.7862H12.5V10ZM15.1358 47.4879C15.8274 47.9623 16.6405 48.2154 17.4724 48.2154C18.5874 48.2141 19.6565 47.7589 20.4449 46.9497C21.2334 46.1404 21.6769 45.0432 21.6782 43.8988C21.6782 43.0451 21.4315 42.2105 20.9694 41.5006C20.5072 40.7908 19.8504 40.2375 19.0819 39.9108C18.3134 39.5841 17.4677 39.4986 16.6519 39.6651C15.836 39.8317 15.0866 40.2428 14.4984 40.8465C13.9102 41.4502 13.5097 42.2193 13.3474 43.0567C13.1851 43.894 13.2684 44.762 13.5867 45.5507C13.905 46.3395 14.4441 47.0136 15.1358 47.4879ZM42.691 47.4879C43.3826 47.9623 44.1958 48.2154 45.0276 48.2154C46.1427 48.2141 47.2117 47.7589 48.0002 46.9497C48.7886 46.1404 49.2322 45.0432 49.2334 43.8988C49.2334 43.0451 48.9868 42.2105 48.5246 41.5006C48.0625 40.7908 47.4056 40.2375 46.6371 39.9108C45.8686 39.5841 45.023 39.4986 44.2071 39.6651C43.3913 39.8317 42.6419 40.2428 42.0537 40.8465C41.4655 41.4502 41.0649 42.2193 40.9026 43.0567C40.7404 43.894 40.8236 44.762 41.142 45.5507C41.4603 46.3395 41.9994 47.0136 42.691 47.4879ZM55.1643 42.3947C55.5449 42.004 55.7591 41.4743 55.7597 40.9218V28.4825H36.25V43.0057H39.1457C39.3548 41.558 40.0638 40.2356 41.1435 39.2796C42.2232 38.3236 43.6017 37.7976 45.0276 37.7976C46.4536 37.7976 47.8321 38.3236 48.9118 39.2796C49.9915 40.2356 50.7005 41.558 50.9095 43.0057H53.7293C54.2676 43.0051 54.7837 42.7853 55.1643 42.3947ZM47.8382 19.3412C47.5808 19.225 47.3027 19.1649 47.0215 19.1646H36.25V26.6964H54.6501L48.5173 19.8393C48.3269 19.6269 48.0957 19.4573 47.8382 19.3412Z"/>
</mask>
<path fill-rule="evenodd" clip-rule="evenodd" d="M12.5 10H8.77072C7.77101 10.0012 6.81259 10.4093 6.10569 11.1348C5.39879 11.8603 5.00115 12.844 5 13.8701V40.9218C5.00115 41.9479 5.39879 42.9316 6.10569 43.6571C6.81259 44.3826 7.77101 44.7907 8.77072 44.7919H11.5905C11.7995 46.2396 12.5085 47.562 13.5882 48.518C14.6679 49.4741 16.0464 50 17.4724 50C18.8983 50 20.2768 49.4741 21.3565 48.518C22.4362 47.562 23.1452 46.2396 23.3543 44.7919H39.1457C39.3548 46.2396 40.0638 47.562 41.1435 48.518C42.2232 49.4741 43.6017 50 45.0276 50C46.4536 50 47.8321 49.4741 48.9118 48.518C49.9915 47.562 50.7005 46.2396 50.9095 44.7919H53.7293C54.729 44.7907 55.6874 44.3826 56.3943 43.6571C57.1012 42.9316 57.4988 41.9479 57.5 40.9218V27.5895C57.4997 27.5487 57.4967 27.508 57.491 27.4677L57.4877 27.4452C57.4799 27.3954 57.4679 27.3464 57.4519 27.2988C57.4499 27.2929 57.4478 27.2871 57.4457 27.2813L57.4447 27.2788C57.4274 27.2307 57.406 27.1841 57.3808 27.1398C57.3773 27.1337 57.3737 27.1276 57.3699 27.1215C57.3428 27.0762 57.3117 27.0336 57.2771 26.9941L57.2709 26.9856L49.7995 18.6305C49.4459 18.236 49.0165 17.9209 48.5384 17.7052C48.0603 17.4895 47.5438 17.3778 47.0215 17.3772H36.25V13.8701C36.2488 12.844 35.8512 11.8603 35.1443 11.1348C34.4374 10.4093 33.479 10.0012 32.4793 10H28.75V11.7862H32.4793C33.0176 11.7868 33.5336 12.0066 33.9143 12.3972C34.2949 12.7879 34.509 13.3176 34.5096 13.8701V43.0057H23.3543C23.1452 41.558 22.4362 40.2356 21.3565 39.2796C20.2768 38.3236 18.8983 37.7976 17.4724 37.7976C16.0464 37.7976 14.6679 38.3236 13.5882 39.2796C12.5085 40.2356 11.7995 41.558 11.5905 43.0057H8.77072C8.23241 43.0051 7.71634 42.7853 7.3357 42.3947C6.95506 42.004 6.74094 41.4743 6.74033 40.9218V13.8701C6.74094 13.3176 6.95506 12.7879 7.3357 12.3972C7.71634 12.0066 8.23241 11.7868 8.77072 11.7862H12.5V10ZM15.1358 47.4879C15.8274 47.9623 16.6405 48.2154 17.4724 48.2154C18.5874 48.2141 19.6565 47.7589 20.4449 46.9497C21.2334 46.1404 21.6769 45.0432 21.6782 43.8988C21.6782 43.0451 21.4315 42.2105 20.9694 41.5006C20.5072 40.7908 19.8504 40.2375 19.0819 39.9108C18.3134 39.5841 17.4677 39.4986 16.6519 39.6651C15.836 39.8317 15.0866 40.2428 14.4984 40.8465C13.9102 41.4502 13.5097 42.2193 13.3474 43.0567C13.1851 43.894 13.2684 44.762 13.5867 45.5507C13.905 46.3395 14.4441 47.0136 15.1358 47.4879ZM42.691 47.4879C43.3826 47.9623 44.1958 48.2154 45.0276 48.2154C46.1427 48.2141 47.2117 47.7589 48.0002 46.9497C48.7886 46.1404 49.2322 45.0432 49.2334 43.8988C49.2334 43.0451 48.9868 42.2105 48.5246 41.5006C48.0625 40.7908 47.4056 40.2375 46.6371 39.9108C45.8686 39.5841 45.023 39.4986 44.2071 39.6651C43.3913 39.8317 42.6419 40.2428 42.0537 40.8465C41.4655 41.4502 41.0649 42.2193 40.9026 43.0567C40.7404 43.894 40.8236 44.762 41.142 45.5507C41.4603 46.3395 41.9994 47.0136 42.691 47.4879ZM55.1643 42.3947C55.5449 42.004 55.7591 41.4743 55.7597 40.9218V28.4825H36.25V43.0057H39.1457C39.3548 41.558 40.0638 40.2356 41.1435 39.2796C42.2232 38.3236 43.6017 37.7976 45.0276 37.7976C46.4536 37.7976 47.8321 38.3236 48.9118 39.2796C49.9915 40.2356 50.7005 41.558 50.9095 43.0057H53.7293C54.2676 43.0051 54.7837 42.7853 55.1643 42.3947ZM47.8382 19.3412C47.5808 19.225 47.3027 19.1649 47.0215 19.1646H36.25V26.6964H54.6501L48.5173 19.8393C48.3269 19.6269 48.0957 19.4573 47.8382 19.3412Z" fill="white"/>
<path d="M12.5 10H14.5V8H12.5V10ZM8.77072 10V8L8.76835 8L8.77072 10ZM6.10569 11.1348L7.53817 12.5305L7.53817 12.5305L6.10569 11.1348ZM5 13.8701L3 13.8678V13.8701H5ZM5 40.9218H3L3 40.9241L5 40.9218ZM6.10569 43.6571L7.53817 42.2614L7.53817 42.2614L6.10569 43.6571ZM8.77072 44.7919L8.76835 46.7919H8.77072V44.7919ZM11.5905 44.7919L13.57 44.5061L13.3224 42.7919H11.5905V44.7919ZM21.3565 48.518L22.6824 50.0154H22.6824L21.3565 48.518ZM23.3543 44.7919V42.7919H21.6223L21.3748 44.5061L23.3543 44.7919ZM39.1457 44.7919L41.1252 44.5061L40.8777 42.7919H39.1457V44.7919ZM41.1435 48.518L42.4693 47.0207H42.4693L41.1435 48.518ZM48.9118 48.518L47.5859 47.0207H47.5859L48.9118 48.518ZM50.9095 44.7919V42.7919H49.1776L48.93 44.5061L50.9095 44.7919ZM53.7293 44.7919V46.7919H53.7316L53.7293 44.7919ZM56.3943 43.6571L54.9618 42.2614L54.9618 42.2614L56.3943 43.6571ZM57.5 40.9218L59.5 40.9241V40.9218H57.5ZM57.5 27.5895H59.5L59.5 27.5758L57.5 27.5895ZM57.491 27.4677L59.4713 27.1873L59.4693 27.1739L57.491 27.4677ZM57.4877 27.4452L59.466 27.1515L59.4648 27.1434L59.4635 27.1353L57.4877 27.4452ZM57.4519 27.2988L55.55 27.9175L55.553 27.9268L55.5561 27.9362L57.4519 27.2988ZM57.4457 27.2813L55.5688 27.9722L55.5695 27.974L57.4457 27.2813ZM57.4447 27.2788L55.5631 27.9569L55.5679 27.9697L57.4447 27.2788ZM57.3808 27.1398L59.1197 26.1517L59.1147 26.143L57.3808 27.1398ZM57.3699 27.1215L55.6552 28.151L55.6598 28.1586L55.6644 28.1661L57.3699 27.1215ZM57.2771 26.9941L55.6659 28.179L55.7161 28.2473L55.7719 28.3111L57.2771 26.9941ZM57.2709 26.9856L58.882 25.8006L58.8254 25.7236L58.7617 25.6524L57.2709 26.9856ZM49.7995 18.6305L51.2903 17.2974L51.289 17.2959L49.7995 18.6305ZM47.0215 17.3772L47.0237 15.3772H47.0215V17.3772ZM36.25 17.3772H34.25V19.3772H36.25V17.3772ZM36.25 13.8701H38.25V13.8678L36.25 13.8701ZM35.1443 11.1348L36.5768 9.73912L36.5768 9.73912L35.1443 11.1348ZM32.4793 10L32.4816 8H32.4793V10ZM28.75 10V8H26.75V10H28.75ZM28.75 11.7862H26.75V13.7862H28.75V11.7862ZM32.4793 11.7862L32.4816 9.78619H32.4793V11.7862ZM34.5096 13.8701H36.5096L36.5096 13.8679L34.5096 13.8701ZM34.5096 43.0057V45.0057H36.5096V43.0057H34.5096ZM23.3543 43.0057L21.3748 43.2916L21.6223 45.0057H23.3543V43.0057ZM21.3565 39.2796L22.6824 37.7822L22.6824 37.7822L21.3565 39.2796ZM13.5882 39.2796L12.2624 37.7822L12.2624 37.7822L13.5882 39.2796ZM11.5905 43.0057V45.0057H13.3224L13.57 43.2916L11.5905 43.0057ZM8.77072 43.0057L8.76836 45.0057H8.77072V43.0057ZM7.3357 42.3947L5.90322 43.7904H5.90322L7.3357 42.3947ZM6.74033 40.9218H4.74033L4.74033 40.9241L6.74033 40.9218ZM6.74033 13.8701L4.74033 13.8678V13.8701H6.74033ZM7.3357 12.3972L5.90322 11.0015L5.90322 11.0015L7.3357 12.3972ZM8.77072 11.7862V9.78618L8.76838 9.78619L8.77072 11.7862ZM12.5 11.7862V13.7862H14.5V11.7862H12.5ZM17.4724 48.2154V50.2154H17.4747L17.4724 48.2154ZM15.1358 47.4879L14.0046 49.1373L14.0046 49.1373L15.1358 47.4879ZM20.4449 46.9497L21.8774 48.3454L21.8774 48.3454L20.4449 46.9497ZM21.6782 43.8988L23.6782 43.901V43.8988H21.6782ZM20.9694 41.5006L19.2933 42.5918L19.2933 42.5918L20.9694 41.5006ZM19.0819 39.9108L19.8643 38.0702L19.8643 38.0702L19.0819 39.9108ZM45.0276 48.2154V50.2154H45.03L45.0276 48.2154ZM42.691 47.4879L41.5599 49.1373L41.5599 49.1373L42.691 47.4879ZM48.0002 46.9497L49.4327 48.3454L49.4327 48.3454L48.0002 46.9497ZM49.2334 43.8988L51.2334 43.901V43.8988H49.2334ZM48.5246 41.5006L46.8485 42.5918V42.5918L48.5246 41.5006ZM46.6371 39.9108L47.4196 38.0702L47.4196 38.0702L46.6371 39.9108ZM40.9026 43.0567L42.8661 43.4372L42.8661 43.4372L40.9026 43.0567ZM41.142 45.5507L42.9966 44.8022L42.9966 44.8022L41.142 45.5507ZM55.7597 40.9218L57.7597 40.924V40.9218H55.7597ZM55.1643 42.3947L53.7318 40.999L53.7318 40.999L55.1643 42.3947ZM55.7597 28.4825H57.7597V26.4825H55.7597V28.4825ZM36.25 28.4825V26.4825H34.25V28.4825H36.25ZM36.25 43.0057H34.25V45.0057H36.25V43.0057ZM39.1457 43.0057V45.0057H40.8777L41.1252 43.2916L39.1457 43.0057ZM41.1435 39.2796L42.4693 40.777H42.4693L41.1435 39.2796ZM48.9118 39.2796L47.5859 40.777H47.5859L48.9118 39.2796ZM50.9095 43.0057L48.93 43.2916L49.1776 45.0057H50.9095V43.0057ZM53.7293 43.0057V45.0057H53.7316L53.7293 43.0057ZM47.0215 19.1646L47.0236 17.1646H47.0215V19.1646ZM47.8382 19.3412L48.6606 17.518L48.6606 17.518L47.8382 19.3412ZM36.25 19.1646V17.1646H34.25V19.1646H36.25ZM36.25 26.6964H34.25V28.6964H36.25V26.6964ZM54.6501 26.6964V28.6964H59.122L56.1408 25.3631L54.6501 26.6964ZM48.5173 19.8393L50.008 18.5061L50.0067 18.5046L48.5173 19.8393ZM12.5 8H8.77072V12H12.5V8ZM8.76835 8C7.22202 8.00183 5.75037 8.63357 4.67321 9.73912L7.53817 12.5305C7.8748 12.185 8.32001 12.0005 8.77308 12L8.76835 8ZM4.67321 9.73912C3.59776 10.8429 3.00173 12.3287 3 13.8678L7 13.8723C7.00057 13.3594 7.19983 12.8778 7.53817 12.5305L4.67321 9.73912ZM3 13.8701V40.9218H7V13.8701H3ZM3 40.9241C3.00173 42.4632 3.59776 43.949 4.67321 45.0528L7.53817 42.2614C7.19983 41.9141 7.00057 41.4325 7 40.9196L3 40.9241ZM4.67321 45.0528C5.75037 46.1583 7.22202 46.7901 8.76835 46.7919L8.77308 42.7919C8.32 42.7914 7.8748 42.6069 7.53817 42.2614L4.67321 45.0528ZM8.77072 46.7919H11.5905V42.7919H8.77072V46.7919ZM9.61102 45.0777C9.88666 46.9866 10.8228 48.7407 12.2624 50.0154L14.9141 47.0207C14.1943 46.3833 13.7124 45.4927 13.57 44.5061L9.61102 45.0777ZM12.2624 50.0154C13.7032 51.2912 15.5518 52 17.4724 52V48C16.541 48 15.6326 47.6569 14.9141 47.0207L12.2624 50.0154ZM17.4724 52C19.3929 52 21.2415 51.2912 22.6824 50.0154L20.0307 47.0207C19.3121 47.6569 18.4038 48 17.4724 48V52ZM22.6824 50.0154C24.1219 48.7407 25.0581 46.9866 25.3337 45.0777L21.3748 44.5061C21.2323 45.4927 20.7505 46.3833 20.0307 47.0207L22.6824 50.0154ZM23.3543 46.7919H39.1457V42.7919H23.3543V46.7919ZM37.1663 45.0777C37.4419 46.9866 38.3781 48.7407 39.8176 50.0154L42.4693 47.0207C41.7495 46.3833 41.2677 45.4927 41.1252 44.5061L37.1663 45.0777ZM39.8176 50.0154C41.2585 51.2912 43.1071 52 45.0276 52V48C44.0962 48 43.1879 47.6569 42.4693 47.0207L39.8176 50.0154ZM45.0276 52C46.9482 52 48.7968 51.2912 50.2376 50.0154L47.5859 47.0207C46.8674 47.6569 45.959 48 45.0276 48V52ZM50.2376 50.0154C51.6772 48.7407 52.6133 46.9866 52.889 45.0777L48.93 44.5061C48.7876 45.4927 48.3057 46.3833 47.5859 47.0207L50.2376 50.0154ZM50.9095 46.7919H53.7293V42.7919H50.9095V46.7919ZM53.7316 46.7919C55.278 46.7901 56.7496 46.1583 57.8268 45.0528L54.9618 42.2614C54.6252 42.6069 54.18 42.7914 53.7269 42.7919L53.7316 46.7919ZM57.8268 45.0528C58.9022 43.949 59.4983 42.4632 59.5 40.9241L55.5 40.9196C55.4994 41.4325 55.3002 41.9141 54.9618 42.2614L57.8268 45.0528ZM59.5 40.9218V27.5895H55.5V40.9218H59.5ZM59.5 27.5758C59.4991 27.4461 59.4895 27.3163 59.4713 27.1873L55.5108 27.7481C55.5039 27.6998 55.5004 27.6514 55.5 27.6031L59.5 27.5758ZM59.4693 27.1739L59.466 27.1515L55.5094 27.739L55.5127 27.7615L59.4693 27.1739ZM59.4635 27.1353C59.4383 26.9746 59.3996 26.8161 59.3476 26.6613L55.5561 27.9362C55.5362 27.8768 55.5214 27.8162 55.5118 27.7551L59.4635 27.1353ZM59.3537 26.68C59.3448 26.6526 59.3369 26.6301 59.3316 26.6153C59.3268 26.6018 59.3222 26.5896 59.3219 26.5886L55.5695 27.974C55.5712 27.9788 55.5689 27.9724 55.5661 27.9647C55.5629 27.9557 55.557 27.939 55.55 27.9175L59.3537 26.68ZM59.3225 26.5903L59.3216 26.5879L55.5679 27.9697L55.5688 27.9722L59.3225 26.5903ZM59.3263 26.6008C59.2704 26.4457 59.2013 26.2954 59.1197 26.1517L55.6419 28.1279C55.6107 28.0729 55.5844 28.0156 55.5632 27.9568L59.3263 26.6008ZM59.1147 26.143C59.1011 26.1194 59.0879 26.0973 59.0754 26.0768L55.6644 28.1661C55.6594 28.158 55.6535 28.1481 55.6469 28.1365L59.1147 26.143ZM59.0846 26.092C58.9966 25.9454 58.8955 25.8065 58.7823 25.6771L55.7719 28.3111C55.7279 28.2607 55.6889 28.2071 55.6552 28.151L59.0846 26.092ZM58.8883 25.8091L58.882 25.8006L55.6597 28.1705L55.6659 28.179L58.8883 25.8091ZM58.7617 25.6524L51.2903 17.2974L48.3086 19.9637L55.78 28.3188L58.7617 25.6524ZM51.289 17.2959C50.7514 16.696 50.0955 16.2136 49.3609 15.8821L47.7159 19.5283C47.9375 19.6282 48.1404 19.776 48.31 19.9652L51.289 17.2959ZM49.3609 15.8821C48.6261 15.5506 47.8301 15.3781 47.0237 15.3772L47.0193 19.3772C47.2574 19.3775 47.4945 19.4283 47.7159 19.5283L49.3609 15.8821ZM47.0215 15.3772H36.25V19.3772H47.0215V15.3772ZM38.25 17.3772V13.8701H34.25V17.3772H38.25ZM38.25 13.8678C38.2482 12.3286 37.6522 10.8429 36.5768 9.73912L33.7118 12.5305C34.0501 12.8778 34.2494 13.3594 34.25 13.8723L38.25 13.8678ZM36.5768 9.73912C35.4996 8.63357 34.028 8.00183 32.4816 8L32.4769 12C32.93 12.0005 33.3752 12.185 33.7118 12.5305L36.5768 9.73912ZM32.4793 8H28.75V12H32.4793V8ZM26.75 10V11.7862H30.75V10H26.75ZM28.75 13.7862H32.4793V9.78619H28.75V13.7862ZM32.4769 13.7862C32.4739 13.7862 32.4721 13.7855 32.4723 13.7856C32.4727 13.7857 32.4763 13.7873 32.4818 13.7929L35.3468 11.0015C34.5958 10.2308 33.5665 9.78746 32.4816 9.78619L32.4769 13.7862ZM32.4818 13.7929C32.4939 13.8053 32.5096 13.8329 32.5096 13.8723L36.5096 13.8679C36.5085 12.8022 36.096 11.7705 35.3468 11.0015L32.4818 13.7929ZM32.5096 13.8701V43.0057H36.5096V13.8701H32.5096ZM34.5096 41.0057H23.3543V45.0057H34.5096V41.0057ZM25.3337 42.7199C25.0581 40.811 24.1219 39.0569 22.6824 37.7822L20.0307 40.777C20.7505 41.4143 21.2323 42.305 21.3748 43.2916L25.3337 42.7199ZM22.6824 37.7822C21.2415 36.5064 19.3929 35.7976 17.4724 35.7976V39.7976C18.4038 39.7976 19.3121 40.1407 20.0307 40.777L22.6824 37.7822ZM17.4724 35.7976C15.5518 35.7976 13.7032 36.5064 12.2624 37.7822L14.9141 40.777C15.6326 40.1407 16.541 39.7976 17.4724 39.7976V35.7976ZM12.2624 37.7822C10.8228 39.0569 9.88666 40.811 9.61102 42.7199L13.57 43.2916C13.7124 42.305 14.1943 41.4143 14.9141 40.777L12.2624 37.7822ZM11.5905 41.0057H8.77072V45.0057H11.5905V41.0057ZM8.77307 41.0057C8.77609 41.0057 8.7779 41.0064 8.77763 41.0063C8.77729 41.0062 8.7737 41.0046 8.76818 40.999L5.90322 43.7904C6.65413 44.5611 7.68344 45.0044 8.76836 45.0057L8.77307 41.0057ZM8.76818 40.999C8.7561 40.9866 8.74037 40.959 8.74033 40.9196L4.74033 40.9241C4.74152 41.9897 5.15402 43.0214 5.90322 43.7904L8.76818 40.999ZM8.74033 40.9218V13.8701H4.74033V40.9218H8.74033ZM8.74033 13.8723C8.74037 13.8329 8.7561 13.8053 8.76818 13.7929L5.90322 11.0015C5.15402 11.7705 4.74152 12.8022 4.74033 13.8678L8.74033 13.8723ZM8.76818 13.7929C8.7737 13.7873 8.77729 13.7857 8.77763 13.7856C8.7779 13.7855 8.77608 13.7862 8.77306 13.7862L8.76838 9.78619C7.68343 9.78746 6.65412 10.2308 5.90322 11.0015L8.76818 13.7929ZM8.77072 13.7862H12.5V9.78619H8.77072V13.7862ZM14.5 11.7862V10H10.5V11.7862H14.5ZM17.4724 46.2154C17.0479 46.2154 16.6284 46.0865 16.2669 45.8385L14.0046 49.1373C15.0263 49.838 16.2332 50.2154 17.4724 50.2154V46.2154ZM19.0124 45.554C18.5943 45.9832 18.0385 46.2148 17.47 46.2154L17.4747 50.2154C19.1364 50.2135 20.7187 49.5347 21.8774 48.3454L19.0124 45.554ZM19.6782 43.8966C19.6775 44.5279 19.4323 45.123 19.0124 45.554L21.8774 48.3454C23.0344 47.1579 23.6763 45.5586 23.6782 43.901L19.6782 43.8966ZM19.2933 42.5918C19.5423 42.9743 19.6782 43.4292 19.6782 43.8988H23.6782C23.6782 42.6609 23.3208 41.4467 22.6455 40.4094L19.2933 42.5918ZM18.2994 41.7514C18.6966 41.9202 19.0446 42.2099 19.2933 42.5918L22.6455 40.4094C21.9698 39.3716 21.0041 38.5547 19.8643 38.0702L18.2994 41.7514ZM17.0519 41.6247C17.4694 41.5395 17.9027 41.5827 18.2994 41.7514L19.8643 38.0702C18.724 37.5854 17.466 37.4577 16.2518 37.7056L17.0519 41.6247ZM15.9309 42.2422C16.2429 41.922 16.6341 41.71 17.0519 41.6247L16.2518 37.7056C15.038 37.9534 13.9303 38.5636 13.0659 39.4508L15.9309 42.2422ZM15.3109 43.4372C15.3999 42.9779 15.6184 42.563 15.9309 42.2422L13.0659 39.4508C12.2021 40.3374 11.6195 41.4607 11.3839 42.6761L15.3109 43.4372ZM15.4414 44.8022C15.2679 44.3725 15.2218 43.8967 15.3109 43.4372L11.3839 42.6761C11.1484 43.8913 11.2689 45.1514 11.7321 46.2992L15.4414 44.8022ZM16.2669 45.8385C15.9047 45.5901 15.6146 45.2315 15.4414 44.8022L11.7321 46.2992C12.1955 47.4474 12.9836 48.4371 14.0046 49.1373L16.2669 45.8385ZM45.0276 46.2154C44.6031 46.2154 44.1837 46.0865 43.8221 45.8385L41.5599 49.1373C42.5816 49.838 43.7885 50.2154 45.0276 50.2154V46.2154ZM46.5677 45.554C46.1495 45.9832 45.5937 46.2148 45.0253 46.2154L45.03 50.2154C46.6916 50.2135 48.2739 49.5347 49.4327 48.3454L46.5677 45.554ZM47.2334 43.8966C47.2327 44.5279 46.9876 45.123 46.5677 45.554L49.4327 48.3454C50.5897 47.1579 51.2316 45.5586 51.2334 43.901L47.2334 43.8966ZM46.8485 42.5918C47.0975 42.9743 47.2334 43.4292 47.2334 43.8988H51.2334C51.2334 42.6609 50.876 41.4467 50.2007 40.4094L46.8485 42.5918ZM45.8546 41.7514C46.2519 41.9202 46.5999 42.2099 46.8485 42.5918L50.2007 40.4094C49.5251 39.3716 48.5594 38.5547 47.4196 38.0702L45.8546 41.7514ZM44.6072 41.6247C45.0247 41.5395 45.458 41.5827 45.8546 41.7514L47.4196 38.0702C46.2792 37.5854 45.0213 37.4577 43.8071 37.7056L44.6072 41.6247ZM43.4862 42.2422C43.7982 41.922 44.1893 41.71 44.6072 41.6247L43.8071 37.7056C42.5932 37.9534 41.4856 38.5636 40.6212 39.4508L43.4862 42.2422ZM42.8661 43.4372C42.9551 42.9779 43.1736 42.563 43.4862 42.2422L40.6212 39.4508C39.7574 40.3374 39.1747 41.4607 38.9392 42.6761L42.8661 43.4372ZM42.9966 44.8022C42.8232 44.3725 42.777 43.8967 42.8661 43.4372L38.9392 42.6761C38.7037 43.8913 38.8241 45.1514 39.2873 46.2992L42.9966 44.8022ZM43.8221 45.8385C43.4599 45.5901 43.1699 45.2315 42.9966 44.8022L39.2873 46.2992C39.7507 47.4474 40.5388 48.4371 41.5599 49.1373L43.8221 45.8385ZM53.7597 40.9196C53.7596 40.959 53.7439 40.9866 53.7318 40.999L56.5968 43.7904C57.346 43.0214 57.7585 41.9897 57.7597 40.924L53.7597 40.9196ZM53.7597 28.4825V40.9218H57.7597V28.4825H53.7597ZM36.25 30.4825H55.7597V26.4825H36.25V30.4825ZM38.25 43.0057V28.4825H34.25V43.0057H38.25ZM39.1457 41.0057H36.25V45.0057H39.1457V41.0057ZM39.8176 37.7822C38.3781 39.0569 37.4419 40.811 37.1663 42.7199L41.1252 43.2916C41.2677 42.305 41.7495 41.4143 42.4693 40.777L39.8176 37.7822ZM45.0276 35.7976C43.1071 35.7976 41.2585 36.5064 39.8176 37.7822L42.4693 40.777C43.1879 40.1407 44.0962 39.7976 45.0276 39.7976V35.7976ZM50.2376 37.7822C48.7968 36.5064 46.9482 35.7976 45.0276 35.7976V39.7976C45.959 39.7976 46.8674 40.1407 47.5859 40.777L50.2376 37.7822ZM52.889 42.7199C52.6133 40.811 51.6772 39.0569 50.2376 37.7822L47.5859 40.777C48.3057 41.4143 48.7876 42.305 48.93 43.2916L52.889 42.7199ZM53.7293 41.0057H50.9095V45.0057H53.7293V41.0057ZM53.7318 40.999C53.7263 41.0046 53.7227 41.0062 53.7224 41.0063C53.7221 41.0064 53.7239 41.0057 53.7269 41.0057L53.7316 45.0057C54.8166 45.0044 55.8459 44.5611 56.5968 43.7904L53.7318 40.999ZM47.0194 21.1646C47.0165 21.1646 47.0151 21.1639 47.0159 21.1643L48.6606 17.518C48.1465 17.2861 47.5889 17.1652 47.0236 17.1646L47.0194 21.1646ZM36.25 21.1646H47.0215V17.1646H36.25V21.1646ZM38.25 26.6964V19.1646H34.25V26.6964H38.25ZM54.6501 24.6964H36.25V28.6964H54.6501V24.6964ZM47.0265 21.1726L53.1593 28.0297L56.1408 25.3631L50.008 18.5061L47.0265 21.1726ZM47.0159 21.1643C47.0168 21.1647 47.0215 21.167 47.0279 21.1741L50.0067 18.5046C49.6323 18.0868 49.1746 17.7499 48.6606 17.518L47.0159 21.1643Z" fill="white" mask="url(#path-1-inside-1)"/>
</svg>
