<svg width="49" height="70" viewBox="0 0 49 70" fill="none" xmlns="http://www.w3.org/2000/svg">
<path d="M31.1816 29.9833C31.1816 33.5891 28.6147 36.2897 25.7068 36.2897C22.799 36.2897 20.2321 33.5891 20.2321 29.9833C20.2321 28.2314 20.8459 27.1298 21.7372 26.4361C22.6703 25.7098 24.043 25.3273 25.7068 25.3273C27.3707 25.3273 28.7433 25.7098 29.6765 26.4361C30.5678 27.1298 31.1816 28.2314 31.1816 29.9833Z" stroke="white" stroke-width="2.11943"/>
<path d="M8.09277 31.7768C8.09277 34.4242 9.97189 36.3604 12.0459 36.3604C14.1199 36.3604 15.999 34.4242 15.999 31.7768C15.999 30.5013 15.5556 29.7271 14.9341 29.2433C14.273 28.7288 13.281 28.4443 12.0459 28.4443C10.8108 28.4443 9.81877 28.7288 9.15773 29.2433C8.53621 29.7271 8.09277 30.5013 8.09277 31.7768Z" stroke="white" stroke-width="2"/>
<path d="M43.6714 31.7768C43.6714 34.4242 41.7923 36.3604 39.7183 36.3604C37.6443 36.3604 35.7651 34.4242 35.7651 31.7768C35.7651 30.5013 36.2086 29.7271 36.8301 29.2433C37.4911 28.7288 38.4832 28.4443 39.7183 28.4443C40.9534 28.4443 41.9454 28.7288 42.6064 29.2433C43.2279 29.7271 43.6714 30.5013 43.6714 31.7768Z" stroke="white" stroke-width="2"/>
<path d="M23.6372 39.7559H27.775M23.6372 39.7559C17.9061 39.7559 13.2601 44.4113 13.2601 50.154V54.0183C13.2601 54.9754 14.0344 55.7513 14.9896 55.7513H26.1382M23.6372 39.7559H12.6349C8.29069 39.7559 4.769 43.2847 4.769 47.6377V51.8804M27.775 39.7559C33.5061 39.7559 38.1522 44.4113 38.1522 50.154V55.7513M27.775 39.7559H38.7773C43.1215 39.7559 47.0306 43.7763 47.0306 48.1293V52.372" stroke="white" stroke-width="2"/>
<path d="M1.00011 26.9169L26.7778 6.11078C27.0799 5.867 27.4194 5.66383 27.8008 5.59193C29.0977 5.34749 30.478 5.74651 31.4443 6.67845L42.4715 17.3128" stroke="white" stroke-width="2"/>
</svg>
