<svg width="43" height="40" viewBox="0 0 43 40" fill="none" xmlns="http://www.w3.org/2000/svg">
<path d="M10.1903 18.4125C8.42538 18.4125 6.82006 18.0182 5.37433 17.2297C3.9286 16.4223 2.78328 15.3333 1.93837 13.9627C1.11224 12.5733 0.699171 11.0337 0.699171 9.34386C0.699171 7.63527 1.11224 6.08627 1.93837 4.69687C2.7645 3.30747 3.90043 2.21847 5.34616 1.42989C6.79189 0.622537 8.40661 0.218859 10.1903 0.218859C11.974 0.218859 13.5887 0.622537 15.0344 1.42989C16.4802 2.21847 17.6161 3.30747 18.4422 4.69687C19.2871 6.08627 19.7096 7.63527 19.7096 9.34386C19.7096 11.0337 19.2871 12.5733 18.4422 13.9627C17.6161 15.3333 16.4802 16.4223 15.0344 17.2297C13.5887 18.0182 11.974 18.4125 10.1903 18.4125ZM32.1579 0.725804H36.2416L12.7814 39.0283H8.72579L32.1579 0.725804ZM10.2185 15.2864C11.3262 15.2864 12.3213 15.0329 13.2038 14.526C14.0863 14.0002 14.7716 13.2868 15.2597 12.3855C15.7667 11.4843 16.0202 10.4798 16.0202 9.37203C16.0202 8.22671 15.7667 7.19404 15.2597 6.27403C14.7528 5.35402 14.0581 4.63115 13.1756 4.10543C12.2932 3.57971 11.2981 3.31685 10.1903 3.31685C9.08253 3.31685 8.08742 3.57971 7.20496 4.10543C6.3225 4.61238 5.6278 5.32586 5.12086 6.24587C4.63269 7.1471 4.3886 8.17038 4.3886 9.3157C4.3886 10.4422 4.63269 11.4655 5.12086 12.3855C5.6278 13.2868 6.3225 14.0002 7.20496 14.526C8.1062 15.0329 9.1107 15.2864 10.2185 15.2864ZM33.3689 39.4226C31.604 39.4226 29.9987 39.0283 28.553 38.2397C27.1072 37.4323 25.9619 36.3434 25.117 34.9727C24.2909 33.5833 23.8778 32.0437 23.8778 30.3539C23.8778 28.6453 24.2909 27.0963 25.117 25.7069C25.9619 24.3175 27.1072 23.2285 28.553 22.4399C29.9987 21.6326 31.604 21.2289 33.3689 21.2289C35.1339 21.2289 36.7392 21.6326 38.1849 22.4399C39.6306 23.2285 40.7666 24.3175 41.5927 25.7069C42.4376 27.0963 42.8601 28.6547 42.8601 30.3821C42.8601 32.0719 42.447 33.6115 41.6209 35.0009C40.7947 36.3715 39.6588 37.4511 38.2131 38.2397C36.7673 39.0283 35.1526 39.4226 33.3689 39.4226ZM33.3971 36.2964C34.5049 36.2964 35.5 36.0429 36.3824 35.536C37.2649 35.0291 37.9502 34.325 38.4384 33.4237C38.9453 32.5225 39.1988 31.518 39.1988 30.4102C39.1988 29.2649 38.9453 28.2322 38.4384 27.3122C37.9314 26.3734 37.2367 25.6412 36.3543 25.1155C35.4718 24.5898 34.4767 24.3269 33.3689 24.3269C32.2612 24.3269 31.2661 24.5898 30.3836 25.1155C29.5011 25.6412 28.8064 26.3641 28.2995 27.2841C27.8113 28.1853 27.5672 29.2086 27.5672 30.3539C27.5672 31.4804 27.8113 32.4943 28.2995 33.3956C28.8064 34.2968 29.5011 35.0103 30.3836 35.536C31.2848 36.0429 32.2893 36.2964 33.3971 36.2964Z" fill="white"/>
</svg>
