<svg width="57" height="43" viewBox="0 0 57 43" fill="none" xmlns="http://www.w3.org/2000/svg">
<path d="M55.6465 36.8999C55.6465 39.4542 53.5758 41.5249 51.0215 41.5249C48.4672 41.5249 46.3965 39.4542 46.3965 36.8999" stroke="white" stroke-width="2"/>
<path d="M23.5308 1H40.7674C42.1439 1 43.4447 1.63003 44.2981 2.71009L55.1621 16.459C55.476 16.8562 55.6467 17.3456 55.6467 17.8519C55.6467 20.5003 55.6467 29.3497 55.6467 35.8828H37.5933" stroke="white" stroke-width="2"/>
<path d="M28.8188 37.1785C28.8188 39.7328 30.8895 41.8035 33.4438 41.8035C35.9981 41.8035 38.0688 39.7328 38.0688 37.1785V18.0982C38.0688 17.5606 37.8955 17.0373 37.5745 16.6059L27.4632 3.01543C26.5198 1.74733 25.0323 1 23.4517 1H11.4998C5.97691 1 1.49976 5.47715 1.49976 11V37.1785C1.49976 39.7328 3.57044 41.8035 6.12476 41.8035C8.67907 41.8035 10.7498 39.7328 10.7498 37.1785" stroke="white" stroke-width="2"/>
</svg>
