<svg width="82" height="82" viewBox="0 0 82 82" fill="none" xmlns="http://www.w3.org/2000/svg">
<path d="M33.5756 29.0017L31.7904 25.7663C31.7344 25.6649 31.6847 25.5602 31.6325 25.4568C31.2854 24.7694 29.6987 22.1632 26.5175 24.4458V24.4458C24.3587 25.9266 22.3323 27.6669 21.0736 29.9623C15.8329 39.5194 18.0606 51.7434 26.8723 58.7728C36.7317 66.6381 51.1005 65.0214 58.9657 55.162C66.831 45.3025 65.2144 30.9338 55.3549 23.0685" stroke="white" stroke-width="2"/>
<path d="M26.5242 50.9032C30.8562 58.9613 40.9004 61.9819 48.9585 57.6499" stroke="white" stroke-width="2"/>
<path d="M41.6699 46.5314L36.5509 33.7904L37.1209 33.4854L45.4023 44.4183C46.2053 45.4784 45.871 47.005 44.6985 47.6325C43.5625 48.2404 42.1502 47.727 41.6699 46.5314Z" fill="white" stroke="white" stroke-width="1.5"/>
</svg>
