<svg width="53" height="60" viewBox="0 0 53 60" fill="none" xmlns="http://www.w3.org/2000/svg">
<path d="M44.7248 2.69508C45.2192 1.97449 46.2042 1.79119 46.9248 2.28566L50.8686 4.99192C51.5892 5.48639 51.7725 6.47138 51.2781 7.19197L39.1761 24.8281C39.1725 24.8333 39.1676 24.8374 39.1617 24.8398L32.451 27.6678C32.4443 27.6707 32.4405 27.6713 32.4394 27.6714C32.438 27.6716 32.437 27.6716 32.4358 27.6715C32.433 27.6712 32.4269 27.6696 32.4196 27.6646C32.4123 27.6597 32.4087 27.6545 32.4074 27.652C32.4072 27.6517 32.407 27.6514 32.4069 27.6511C32.4066 27.6504 32.4063 27.6496 32.4061 27.6487C32.4058 27.6475 32.4051 27.6438 32.4053 27.6365L32.6176 20.3481L31.6256 20.3192L32.6176 20.3481C32.6178 20.3418 32.6198 20.3357 32.6234 20.3304L44.7248 2.69508Z" stroke="white" stroke-width="2"/>
<path d="M5.3544 56.0348C5.17553 56.5573 5.4541 57.1259 5.97662 57.3048C6.49913 57.4836 7.06772 57.2051 7.2466 56.6826L5.3544 56.0348ZM10.6404 40.5938L5.3544 56.0348L7.2466 56.6826L12.5326 41.2415L10.6404 40.5938Z" fill="white"/>
<path d="M28.6292 55.7357C28.8081 56.2582 28.5295 56.8268 28.007 57.0057C27.4845 57.1846 26.9159 56.906 26.737 56.3835L28.6292 55.7357ZM23.343 40.2948L28.6292 55.7357L26.737 56.3835L21.4508 40.9426L23.343 40.2948Z" fill="white"/>
<path d="M1.01053 27.5801L0.0292786 27.7728L0.0332031 27.7928L0.0379379 27.8126L1.01053 27.5801ZM3.11069 36.3654L4.08435 36.1373L4.08328 36.1329L3.11069 36.3654ZM1.67878 26.9477L1.98277 25.995L1.95422 25.9859L1.92518 25.9785L1.67878 26.9477ZM5.32734 28.1119L5.63133 27.1592L5.63133 27.1592L5.32734 28.1119ZM30.8981 36.3654L31.8717 36.5934L31.8778 36.5676L31.8825 36.5414L30.8981 36.3654ZM6.64205 26.892L7.61825 26.6752L6.64205 26.892ZM8.03308 13.4312C8.17873 12.8985 7.86495 12.3485 7.33222 12.2029C6.79949 12.0572 6.24954 12.371 6.10389 12.9037L8.03308 13.4312ZM0.0379379 27.8126L2.13809 36.5979L4.08328 36.1329L1.98313 27.3476L0.0379379 27.8126ZM2.13704 36.5934C2.92196 39.9447 6.42103 41.6196 9.85849 41.6196V39.6196C6.87673 39.6196 4.56579 38.1929 4.08434 36.1373L2.13704 36.5934ZM9.85849 41.6196H24.1503V39.6196H9.85849V41.6196ZM1.37479 27.9004L5.02335 29.0646L5.63133 27.1592L1.98277 25.995L1.37479 27.9004ZM1.99179 27.3874C2.05627 27.7158 1.75669 27.9993 1.43239 27.9169L1.92518 25.9785C0.826077 25.6991 -0.18927 26.6601 0.0292786 27.7728L1.99179 27.3874ZM29.9244 36.1373C29.443 38.1929 27.132 39.6196 24.1503 39.6196V41.6196C27.5878 41.6196 31.0868 39.9447 31.8717 36.5934L29.9244 36.1373ZM30.7302 31.6237L29.9137 36.1893L31.8825 36.5414L32.699 31.9757L30.7302 31.6237ZM7.61825 26.6752C7.24765 25.007 6.79315 22.591 6.79315 20.8585H4.79315C4.79315 22.8324 5.29496 25.4394 5.66585 27.1089L7.61825 26.6752ZM6.79315 20.8585C6.79315 19.4528 7.09363 17.6135 7.41017 16.0802C7.56643 15.3233 7.72283 14.6584 7.8401 14.1831C7.89868 13.9457 7.94736 13.7561 7.9812 13.6266C7.99811 13.5619 8.01131 13.5122 8.02016 13.4791C8.02459 13.4626 8.02793 13.4502 8.03011 13.4421C8.0312 13.4381 8.032 13.4352 8.0325 13.4333C8.03274 13.4324 8.03292 13.4318 8.03302 13.4314C8.03306 13.4313 8.03309 13.4312 8.0331 13.4311C8.03311 13.4311 8.0331 13.4311 8.0331 13.4311C8.03309 13.4312 8.03308 13.4312 7.06848 13.1675C6.10389 12.9037 6.10386 12.9038 6.10383 12.904C6.10381 12.904 6.10378 12.9041 6.10374 12.9043C6.10368 12.9045 6.10359 12.9048 6.10348 12.9052C6.10327 12.906 6.10298 12.9071 6.10262 12.9084C6.10189 12.9111 6.10086 12.9149 6.09954 12.9198C6.09689 12.9295 6.09307 12.9437 6.08816 12.9621C6.07833 12.9988 6.06412 13.0523 6.04617 13.121C6.01026 13.2584 5.95931 13.4569 5.89833 13.704C5.77647 14.1979 5.61404 14.8884 5.45147 15.6758C5.13034 17.2314 4.79315 19.2376 4.79315 20.8585H6.79315ZM5.02335 29.0646C6.53649 29.5474 7.95121 28.1739 7.61825 26.6752L5.66585 27.1089C5.66736 27.1157 5.66725 27.1192 5.66719 27.1204C5.66711 27.1218 5.66686 27.1235 5.66608 27.1259C5.66422 27.1314 5.6592 27.1408 5.64955 27.1498C5.6451 27.154 5.64088 27.1568 5.63758 27.1587C5.63437 27.1604 5.63267 27.1608 5.63281 27.1608C5.63317 27.1607 5.63446 27.1605 5.63597 27.1605C5.63773 27.1606 5.6365 27.1609 5.63133 27.1592L5.02335 29.0646Z" fill="white"/>
</svg>
