<svg width="17" height="20" viewBox="0 0 17 20" fill="none" xmlns="http://www.w3.org/2000/svg">
<path d="M13.4748 6.42175L11.1796 1.80245C10.8119 1.06239 9.75623 1.06239 9.38853 1.80245L7.32583 5.95398C7.18022 6.24704 6.90043 6.45032 6.57672 6.49824L1.99097 7.17709C1.17351 7.2981 0.847278 8.30214 1.43749 8.88053L4.74842 12.1252C4.98214 12.3542 5.08901 12.6831 5.03455 13.0058L4.26311 17.5769C4.12559 18.3917 4.97967 19.0123 5.71214 18.6297L9.82111 16.4834C10.1112 16.3319 10.457 16.3319 10.7471 16.4834L14.8599 18.6317C15.5917 19.0139 16.4452 18.3949 16.3092 17.5806L15.8743 14.9758" stroke="black" stroke-width="1.3"/>
</svg>
