<svg width="24" height="24" viewBox="0 0 24 24" fill="none" xmlns="http://www.w3.org/2000/svg">
<path d="M14.4359 16.4716C12.2464 17.4691 9.76465 17.3396 7.7304 16.2528C7.73039 16.2528 7.73038 16.2528 7.73037 16.2528L7.7775 16.1646C7.40303 15.9647 7.05071 15.7354 6.72256 15.4807C5.96062 14.8892 5.32889 14.1606 4.8523 13.3437L14.4359 16.4716ZM14.4359 16.4716C14.4448 16.4877 14.4542 16.5037 14.464 16.5196L17.8121 21.9093C17.8525 21.9745 17.9024 22.0257 17.9672 22.0507C18.0335 22.0763 18.0985 22.068 18.1549 22.0483C18.2096 22.0293 18.2636 21.9969 18.3145 21.9635C18.3404 21.9465 18.3673 21.928 18.3942 21.9095C18.4214 21.8907 18.4489 21.8718 18.4777 21.8527C18.5042 21.8352 18.5331 21.8191 18.566 21.8008C18.5768 21.7948 18.588 21.7885 18.5997 21.7819C18.6437 21.7571 18.694 21.7272 18.7357 21.6906C18.7778 21.6535 18.8194 21.6023 18.8321 21.5325C18.8451 21.4616 18.8248 21.3908 18.7823 21.3223L18.7821 21.322L15.3966 15.9099C15.0724 15.3916 14.3995 15.253 13.8555 15.4885C12.3893 16.1232 10.7778 16.1713 9.32374 15.7019C8.95109 15.5813 8.59704 15.4301 8.26348 15.2518C7.60548 14.9002 7.02696 14.4434 6.54245 13.9099C6.29024 13.632 6.05888 13.3281 5.85233 12.9991C5.33569 12.176 5.02824 11.2813 4.91556 10.3769C4.80665 9.50277 4.87971 8.61943 5.12197 7.7831C5.14018 7.72044 5.1594 7.65784 5.17962 7.59533C5.29517 7.23808 5.43895 6.89794 5.60769 6.57655C5.94455 5.93534 6.39267 5.34544 6.9448 4.83853C7.22988 4.57679 7.54274 4.33713 7.88242 4.12392C8.70539 3.60735 9.59997 3.29991 10.5042 3.1872C11.3771 3.07838 12.2592 3.15103 13.0945 3.39243C13.1585 3.41098 13.2223 3.43056 13.2862 3.4512C13.6516 3.56939 13.9991 3.71712 14.3269 3.89087C14.9939 4.24438 15.5798 4.70574 16.0695 5.2455C16.3209 5.52271 16.5516 5.82582 16.7576 6.15396L14.4359 16.4716ZM17.3995 11.6529L17.4303 11.5577C18.04 9.6726 17.7338 7.7111 16.7576 6.154L17.3995 11.6529ZM17.3995 11.6529L17.4947 11.6837M17.3995 11.6529L17.4947 11.6837M17.4947 11.6837L18.3833 11.9711L18.4784 12.0019M17.4947 11.6837L18.4784 12.0019M18.4784 12.0019L18.5092 11.9067M18.4784 12.0019L18.5092 11.9067M18.5092 11.9067C19.5158 8.79454 18.3999 5.50524 15.9624 3.60407M18.5092 11.9067L15.9624 3.60407M15.9624 3.60407C15.6204 3.33738 15.2525 3.09801 14.8608 2.89027M15.9624 3.60407L14.8608 2.89027M14.8608 2.89027C14.3971 2.6442 13.9103 2.44779 13.4093 2.30301M14.8608 2.89027L13.4093 2.30301M13.4093 2.30301C12.391 2.00781 11.3577 1.93661 10.364 2.0617C9.37791 2.18453 8.40167 2.50421 7.49358 3.03393L13.4093 2.30301Z" fill="black" stroke="black" stroke-width="0.2"/>
</svg>
