<svg width="24" height="24" viewBox="0 0 24 24" fill="none" xmlns="http://www.w3.org/2000/svg">
<path d="M15.3243 6.2981C15.3243 8.36066 13.8539 9.89855 12.1961 9.89855C10.5384 9.89855 9.06797 8.36066 9.06797 6.2981C9.06797 5.298 9.41836 4.67432 9.92331 4.28208C10.4541 3.86975 11.2388 3.65 12.1961 3.65C13.1535 3.65 13.9381 3.86975 14.469 4.28208C14.9739 4.67432 15.3243 5.298 15.3243 6.2981Z" stroke="black" stroke-width="1.3"/>
<path d="M15.8635 17.7184V20.1669C15.8635 20.7192 16.3112 21.1669 16.8635 21.1669H18.3924C18.9447 21.1669 19.3924 20.7192 19.3924 20.1669V17.9371C19.3924 14.6234 16.7061 11.9371 13.3924 11.9371H11C7.68629 11.9371 5 14.6234 5 17.9371V20.1669C5 20.7192 5.44772 21.1669 6 21.1669H12.446" stroke="black" stroke-width="1.3"/>
</svg>
