<svg width="24" height="27" viewBox="0 0 24 27" fill="none" xmlns="http://www.w3.org/2000/svg">
<path d="M18.5473 8.85017L15.0557 1.82271C14.688 1.08265 13.6323 1.08265 13.2646 1.82271L10.0054 8.3824C9.85978 8.67546 9.58 8.87874 9.25628 8.92666L2.0105 9.99929C1.19304 10.1203 0.866808 11.1243 1.45702 11.7027L6.6885 16.8295C6.92222 17.0585 7.02909 17.3874 6.97464 17.7101L5.7557 24.9327C5.61818 25.7476 6.47226 26.3681 7.20473 25.9855L13.6972 22.5943C13.9872 22.4428 14.3331 22.4428 14.6231 22.5943L21.1195 25.9875C21.8512 26.3698 22.7047 25.7508 22.5688 24.9365L21.8467 20.612" stroke="black" stroke-width="1.3"/>
</svg>
