<svg width="24" height="19" viewBox="0 0 24 19" fill="none" xmlns="http://www.w3.org/2000/svg">
<path d="M22.6646 8.36652L23.1015 7.88522L23.0754 7.86156L23.047 7.84086L22.6646 8.36652ZM22.6646 9.28992L23.0397 9.82081L23.071 9.79864L23.0996 9.77294L22.6646 9.28992ZM11.9568 11.1367H12.6068V10.4867H11.9568V11.1367ZM1.31425 17.9168L0.747134 17.5992L0.74713 17.5992L1.31425 17.9168ZM1.00003 17.8457H1.65003V17.8456L1.00003 17.8457ZM1 17.2014H0.35V17.2014L1 17.2014ZM11.9568 6.5197V7.1697H12.6042L12.6068 6.52236L11.9568 6.5197ZM11.9776 1.44097L12.6276 1.44362V1.44097H11.9776ZM12.6624 1.09125L12.2172 1.56488L12.247 1.59287L12.28 1.6169L12.6624 1.09125ZM20.1641 11.0564L20.515 11.6036L20.5272 11.5957L20.5391 11.5873L20.1641 11.0564ZM11.9568 14.5037H11.3068L11.3069 14.5101L11.9568 14.5037ZM22.2278 8.84781C22.2788 8.89418 22.3175 8.93099 22.3471 8.9612C22.3617 8.97602 22.3729 8.98808 22.3814 8.99773C22.3899 9.00743 22.3948 9.01364 22.3971 9.01672C22.3995 9.01983 22.3982 9.01847 22.3949 9.01295C22.3916 9.00738 22.3855 8.9964 22.3788 8.98032C22.372 8.96404 22.3647 8.94249 22.3591 8.9162C22.3534 8.88964 22.35 8.86042 22.35 8.82942C22.35 8.79842 22.3534 8.76912 22.3591 8.7424C22.3648 8.71596 22.3722 8.69423 22.3791 8.67773C22.3859 8.66145 22.3921 8.65027 22.3956 8.6445C22.399 8.63878 22.4004 8.63724 22.3982 8.64016C22.396 8.64307 22.3912 8.64912 22.3827 8.65864C22.3743 8.66812 22.3632 8.68001 22.3488 8.69466C22.3193 8.72452 22.2807 8.76095 22.2297 8.80691L23.0996 9.77294C23.2144 9.66956 23.3382 9.55201 23.4341 9.4255C23.5326 9.29558 23.65 9.09382 23.65 8.82942C23.65 8.56548 23.533 8.36385 23.4352 8.23409C23.3397 8.10745 23.2162 7.98939 23.1015 7.88522L22.2278 8.84781ZM11.9568 10.4867C6.60402 10.4867 2.81006 13.9158 0.747134 17.5992L1.88136 18.2344C3.80032 14.8081 7.22744 11.7867 11.9568 11.7867V10.4867ZM0.74713 17.5992C0.841769 17.4302 1.01091 17.35 1.1665 17.35V18.65C1.44638 18.65 1.72946 18.5056 1.88137 18.2344L0.74713 17.5992ZM1.1665 17.35C1.3863 17.35 1.65003 17.5264 1.65003 17.8457H0.350027C0.350027 18.3354 0.762822 18.65 1.1665 18.65V17.35ZM1.65003 17.8456L1.65 17.2014L0.35 17.2014L0.350027 17.8457L1.65003 17.8456ZM1.65 17.2014C1.65 15.2281 2.3602 12.7062 4.00347 10.6894C5.62874 8.69473 8.18429 7.1697 11.9568 7.1697V5.8697C7.78575 5.8697 4.8629 7.5766 2.99565 9.86828C1.14641 12.1379 0.35 14.9569 0.35 17.2014H1.65ZM12.6068 6.52236L12.6276 1.44362L11.3276 1.43831L11.3068 6.51705L12.6068 6.52236ZM12.6276 1.44097C12.6276 1.56526 12.5562 1.6148 12.5342 1.62662C12.515 1.63691 12.4752 1.65281 12.4153 1.64958C12.3477 1.64594 12.2735 1.61781 12.2172 1.56488L13.1075 0.617609C12.7229 0.256076 12.2291 0.314839 11.919 0.481383C11.6169 0.643685 11.3276 0.985109 11.3276 1.44097H12.6276ZM12.28 1.6169L22.2823 8.89217L23.047 7.84086L13.0447 0.565591L12.28 1.6169ZM22.2896 8.75903L19.789 10.5256L20.5391 11.5873L23.0397 9.82081L22.2896 8.75903ZM11.3068 11.1367V14.5037H12.6068V11.1367H11.3068ZM12.6275 16.5888L12.6068 14.4972L11.3069 14.5101L11.3276 16.6017L12.6275 16.5888ZM19.8132 10.5093L19.0154 11.021L19.7172 12.1152L20.515 11.6036L19.8132 10.5093Z" fill="black"/>
</svg>
