<svg width="17" height="17" viewBox="0 0 17 17" fill="none" xmlns="http://www.w3.org/2000/svg">
<path d="M6.2051 11.3806C5.85507 11.008 5.48697 10.6489 5.11209 10.2989C4.59269 9.81338 4.05748 9.75918 3.54485 10.2266C2.78833 10.9154 2.0589 11.6381 1.3611 12.3878C0.88234 12.9004 0.875568 13.4537 1.36336 13.9618C2.05213 14.68 2.65735 15.511 3.62615 15.9085C4.08458 16.0372 4.31944 16.0236 4.94498 15.9085C5.16855 15.8452 5.39212 15.7843 5.61569 15.7165C8.68921 14.7861 11.1146 12.9185 13.1222 10.4683C14.4456 8.85813 15.3873 7.04473 15.9292 5.03035C16.0444 4.48384 16.0444 4.15413 15.9292 3.60086C15.5295 2.63657 14.7211 2.01329 13.9871 1.34032C13.4677 0.866082 12.8715 0.895439 12.3612 1.37871C11.643 2.05845 10.9452 2.76078 10.2655 3.47665C9.82738 3.93734 9.85222 4.55159 10.3061 5.05744C10.6607 5.45264 11.0378 5.82752 11.4285 6.19336C11.6476 6.40112 10.3778 7.5625 10.3061 7.61765" stroke="black" stroke-width="0.941176"/>
</svg>
