<svg width="24" height="24" viewBox="0 0 24 24" fill="none" xmlns="http://www.w3.org/2000/svg">
<path d="M22.6589 18.4714C22.6589 19.4932 21.8306 20.3214 20.8089 20.3214C19.7871 20.3214 18.9589 19.4932 18.9589 18.4714" stroke="white" stroke-width="1.3"/>
<path d="M9.8125 4H16.6103C17.2221 4 17.8002 4.28002 18.1795 4.76004L22.4435 10.1563C22.583 10.3329 22.6589 10.549 22.6589 10.774C22.6589 11.8723 22.6589 15.3666 22.6589 17.9531H15.4375" stroke="white" stroke-width="1.3"/>
<path d="M11.9276 18.4714C11.9276 19.4931 12.7559 20.3214 13.7776 20.3214C14.7993 20.3214 15.6276 19.4931 15.6276 18.4714V10.8393C15.6276 10.6242 15.5583 10.4149 15.4299 10.2424L11.3854 4.80617C11.008 4.29893 10.413 4 9.78078 4H5C2.79086 4 1 5.79086 1 8V18.4714C1 19.4931 1.82827 20.3214 2.85 20.3214C3.87173 20.3214 4.7 19.4931 4.7 18.4714" stroke="white" stroke-width="1.3"/>
</svg>
