<svg width="87" height="21" viewBox="0 0 87 21" fill="none" xmlns="http://www.w3.org/2000/svg">
<path d="M0.759806 14.2013C1.52032 14.4268 2.6205 14.6007 3.53324 14.6007C4.18991 14.6007 4.73985 14.561 5.12489 14.3545C5.32816 14.2455 5.48683 14.09 5.59098 13.8779C5.69267 13.6708 5.73489 13.425 5.73489 13.1439C5.73489 12.9467 5.70786 12.7532 5.62213 12.5751C5.53454 12.3932 5.39503 12.2468 5.20215 12.1304C4.8334 11.9078 4.24889 11.784 3.38023 11.7062L3.38023 11.7062L3.37804 11.706C2.29274 11.6185 1.51594 11.427 1.01031 11.0444C0.525245 10.6773 0.25 10.1015 0.25 9.12938C0.25 7.90711 0.657728 7.17169 1.32268 6.72648C2.00869 6.26716 3.01072 6.08691 4.25651 6.08691C5.18629 6.08691 6.3505 6.26568 7.28799 6.54802L6.89451 7.95861C6.11592 7.73355 5.10143 7.55461 4.1773 7.55461C3.87748 7.55461 3.60408 7.56184 3.36438 7.59079C3.12557 7.61964 2.90439 7.67171 2.71622 7.77096C2.52208 7.87337 2.36951 8.02277 2.26943 8.2303C2.17212 8.43209 2.13146 8.67411 2.13146 8.95439C2.13146 9.14971 2.16202 9.33782 2.25448 9.50722C2.34851 9.67951 2.49373 9.8091 2.68238 9.90834C3.0416 10.0973 3.60133 10.1965 4.40542 10.2738C5.59458 10.3998 6.39519 10.6426 6.8994 11.0587C7.38678 11.4609 7.63584 12.0591 7.63584 13.0064C7.63584 14.2299 7.23211 14.9703 6.56937 15.4199C5.88617 15.8834 4.88495 16.0684 3.63063 16.0684C2.67471 16.0684 1.29637 15.9042 0.381435 15.6289L0.759806 14.2013Z" fill="black" stroke="white" stroke-width="0.5"/>
<path d="M15.8978 6.37988V15.7962H13.9786V6.37988H15.8978Z" fill="black" stroke="white" stroke-width="0.5"/>
<path d="M31.035 10.5125V15.7961H29.1158V10.7665C29.1158 10.2105 29.0901 9.74621 29.0207 9.36365C28.9513 8.98093 28.8355 8.66346 28.6434 8.41456C28.2482 7.90251 27.6043 7.76979 26.7376 7.76979C26.0906 7.76979 25.5029 7.85058 24.8971 8.01149L24.7112 8.06085V8.25312V15.7961H22.7921V6.86719C23.9781 6.43805 25.7635 6.08691 27.2453 6.08691C28.6159 6.08691 29.5372 6.36089 30.1271 7.00614C30.7232 7.65818 31.035 8.74671 31.035 10.5125Z" fill="black" stroke="white" stroke-width="0.5"/>
<path d="M40.7855 7.98308H40.5355V8.23308V12.5003C40.5355 13.0956 40.6395 13.6005 40.9338 13.9571C41.2372 14.3248 41.698 14.4834 42.2878 14.4834C42.849 14.4834 43.3531 14.3997 43.7994 14.2776C43.8033 14.2955 43.8072 14.3134 43.8111 14.3313C43.9091 14.7818 44.0094 15.2433 44.1193 15.7061C43.4496 15.914 42.5199 16.0691 41.6827 16.0691C40.602 16.0691 39.8595 15.902 39.3774 15.4396C38.8966 14.9785 38.6151 14.1652 38.6151 12.7142V8.23308V7.98308H38.3651H36.9556V6.37927H43.8337V7.98308H40.7855Z" fill="black" stroke="white" stroke-width="0.5"/>
<path d="M51.7351 9.84634L51.7091 10.12H51.984H56.0639H56.3255L56.3137 9.85874C56.274 8.98151 56.1429 8.36343 55.7782 7.97871C55.4046 7.58465 54.847 7.49677 54.1499 7.49677C53.3745 7.49677 52.7848 7.61765 52.3794 8.01619C51.9797 8.40917 51.8137 9.02038 51.7351 9.84634ZM54.5408 14.5234C55.1916 14.5234 56.3317 14.38 57.1399 14.1756L57.432 15.6024C56.4751 15.887 55.1689 16.0688 54.2473 16.0688C52.8421 16.0688 51.714 15.7721 50.9346 15.0253C50.1569 14.2802 49.6772 13.0397 49.6772 11.0392C49.6772 9.08096 50.1058 7.85935 50.8341 7.12333C51.5613 6.38857 52.6371 6.0874 54.0525 6.0874C55.6092 6.0874 56.6498 6.35568 57.3013 7.13476C57.9416 7.90037 58.2602 9.21989 58.203 11.4711H51.9645H51.7122L51.7145 11.7234C51.7245 12.8044 51.9362 13.5359 52.4435 13.9813C52.9432 14.4201 53.6683 14.5234 54.5408 14.5234Z" fill="black" stroke="white" stroke-width="0.5"/>
<path d="M67.2723 14.1917H71.9995V15.7956H63.7358V15.6462C65.624 13.2485 67.9185 9.95529 68.8906 8.36337L69.1228 7.98308H68.6773H64.067V6.37927H72.1358V6.5439C70.7305 8.79701 68.3647 12.1539 67.076 13.7869L66.7565 14.1917H67.2723Z" fill="black" stroke="white" stroke-width="0.5"/>
<path d="M84.3831 11.6622V11.46L84.1853 11.4177C83.616 11.2963 82.8949 11.2372 82.162 11.2372C81.8184 11.2372 81.5168 11.2468 81.2604 11.2839C81.0042 11.3209 80.7736 11.3879 80.5835 11.516C80.181 11.7874 80.059 12.2593 80.059 12.9092C80.059 13.5794 80.1443 14.0851 80.5204 14.3878C80.7041 14.5356 80.9341 14.6154 81.197 14.6604C81.4594 14.7053 81.7745 14.7186 82.1438 14.7186C82.8759 14.7186 83.624 14.576 84.2143 14.3732L84.3831 14.3153V14.1368V11.6622ZM81.6556 7.61295C80.6496 7.61295 79.6419 7.77325 78.8313 8.02577L78.4976 6.54556C79.5012 6.3003 80.8666 6.08691 82.162 6.08691C83.6234 6.08691 84.6193 6.31191 85.2533 6.84618C85.8762 7.37105 86.2061 8.24498 86.2061 9.69454V15.3662C84.9956 15.8044 83.2701 16.0684 81.9672 16.0684C80.3966 16.0684 79.4265 15.8839 78.8434 15.4359C78.2816 15.0043 78.0217 14.278 78.0217 13.0064C78.0217 11.6508 78.4009 10.9341 78.992 10.5349C79.6085 10.1186 80.5138 10.0029 81.6737 10.0029C82.4933 10.0029 83.2563 10.0976 84.0821 10.2698L84.3831 10.3326V10.0251C84.3831 9.16338 84.2888 8.51293 83.837 8.10755C83.6123 7.90592 83.3204 7.78441 82.9653 7.71194C82.6116 7.63973 82.1785 7.61295 81.6556 7.61295Z" fill="black" stroke="white" stroke-width="0.5"/>
<path fill-rule="evenodd" clip-rule="evenodd" d="M3.94324 20.7924H82.1121V19.699H3.94324V20.7924Z" fill="black"/>
<path fill-rule="evenodd" clip-rule="evenodd" d="M3.94324 1.4577H82.1121V0.364258H3.94324V1.4577Z" fill="black"/>
<path d="M38.5152 4.37936V1.57773H40.411V2.76924L38.5152 4.37936Z" fill="black" stroke="white" stroke-width="0.3"/>
</svg>
