<svg width="24" height="24" viewBox="0 0 24 24" fill="none" xmlns="http://www.w3.org/2000/svg">
<path d="M15.4748 8.42175L13.1796 3.80245C12.8119 3.06239 11.7562 3.06239 11.3885 3.80245L9.32583 7.95398C9.18022 8.24704 8.90043 8.45032 8.57672 8.49824L3.99097 9.17709C3.17351 9.2981 2.84728 10.3021 3.43749 10.8805L6.74842 14.1252C6.98214 14.3542 7.08901 14.6831 7.03455 15.0058L6.26311 19.5769C6.12559 20.3917 6.97967 21.0123 7.71214 20.6297L11.8211 18.4834C12.1112 18.3319 12.457 18.3319 12.7471 18.4834L16.8599 20.6317C17.5917 21.0139 18.4452 20.3949 18.3092 19.5806L17.8743 16.9758" stroke="black" stroke-width="1.3"/>
</svg>
