<svg width="25" height="24" viewBox="0 0 25 24" fill="none" xmlns="http://www.w3.org/2000/svg">
<g clip-path="url(#clip0)">
<mask id="path-1-outside-1" maskUnits="userSpaceOnUse" x="0.197266" y="5" width="23" height="18" fill="black">
<rect fill="white" x="0.197266" y="5" width="23" height="18"/>
<path fill-rule="evenodd" clip-rule="evenodd" d="M4.19727 6H2.70555C2.30567 6.00047 1.9223 6.16372 1.63954 6.45393C1.35678 6.74414 1.19773 7.13761 1.19727 7.54803V18.3687C1.19773 18.7792 1.35678 19.1726 1.63954 19.4628C1.9223 19.753 2.30567 19.9163 2.70555 19.9168H3.83346C3.91708 20.4958 4.20068 21.0248 4.63256 21.4072C5.06444 21.7896 5.61583 22 6.18622 22C6.7566 22 7.30799 21.7896 7.73987 21.4072C8.17175 21.0248 8.45535 20.4958 8.53897 19.9168H14.8556C14.9392 20.4958 15.2228 21.0248 15.6547 21.4072C16.0865 21.7896 16.6379 22 17.2083 22C17.7787 22 18.3301 21.7896 18.762 21.4072C19.1938 21.0248 19.4774 20.4958 19.5611 19.9168H20.689C21.0889 19.9163 21.4722 19.753 21.755 19.4628C22.0378 19.1726 22.1968 18.7792 22.1973 18.3687V13.0358C22.1972 13.0195 22.196 13.0032 22.1937 12.9871L22.1923 12.9781C22.1892 12.9582 22.1844 12.9386 22.178 12.9195L22.1752 12.9115C22.1682 12.8923 22.1597 12.8737 22.1496 12.8559L22.1452 12.8486C22.1344 12.8305 22.1219 12.8134 22.1081 12.7976L22.1056 12.7942L19.1171 9.45222C18.9756 9.29439 18.8039 9.16836 18.6126 9.08208C18.4214 8.99579 18.2148 8.95113 18.0059 8.9509H13.6973V7.54803C13.6968 7.13761 13.5377 6.74414 13.255 6.45393C12.9722 6.16372 12.5889 6.00047 12.189 6H10.6973V6.71447H12.189C12.4043 6.71473 12.6107 6.80263 12.763 6.95889C12.9152 7.11516 13.0009 7.32703 13.0011 7.54803V19.2023H8.53897C8.45535 18.6232 8.17175 18.0942 7.73987 17.7118C7.30799 17.3294 6.7566 17.119 6.18622 17.119C5.61583 17.119 5.06444 17.3294 4.63256 17.7118C4.20068 18.0942 3.91708 18.6232 3.83346 19.2023H2.70555C2.49023 19.202 2.2838 19.1141 2.13154 18.9579C1.97929 18.8016 1.89364 18.5897 1.8934 18.3687V7.54803C1.89364 7.32703 1.97929 7.11516 2.13154 6.95889C2.2838 6.80263 2.49023 6.71473 2.70555 6.71447H4.19727V6ZM5.25157 20.9952C5.52822 21.1849 5.85348 21.2862 6.18622 21.2862C6.63224 21.2856 7.05985 21.1036 7.37524 20.7799C7.69062 20.4562 7.86803 20.0173 7.86854 19.5595C7.86854 19.218 7.76987 18.8842 7.58501 18.6003C7.40016 18.3163 7.13742 18.095 6.83001 17.9643C6.52261 17.8336 6.18435 17.7994 5.85801 17.8661C5.53167 17.9327 5.23191 18.0971 4.99664 18.3386C4.76136 18.5801 4.60113 18.8877 4.53622 19.2227C4.47131 19.5576 4.50462 19.9048 4.63195 20.2203C4.75929 20.5358 4.97491 20.8055 5.25157 20.9952ZM16.2737 20.9952C16.5503 21.1849 16.8756 21.2862 17.2083 21.2862C17.6543 21.2856 18.082 21.1036 18.3973 20.7799C18.7127 20.4562 18.8901 20.0173 18.8906 19.5595C18.8906 19.218 18.792 18.8842 18.6071 18.6003C18.4223 18.3163 18.1595 18.095 17.8521 17.9643C17.5447 17.8336 17.2064 17.7994 16.8801 17.8661C16.5538 17.9327 16.254 18.0971 16.0187 18.3386C15.7835 18.5801 15.6232 18.8877 15.5583 19.2227C15.4934 19.5576 15.5267 19.9048 15.6541 20.2203C15.7814 20.5358 15.997 20.8055 16.2737 20.9952ZM21.263 18.9579C21.4152 18.8016 21.5009 18.5897 21.5011 18.3687V13.393H13.6973V19.2023H14.8556C14.9392 18.6232 15.2228 18.0942 15.6547 17.7118C16.0865 17.3294 16.6379 17.119 17.2083 17.119C17.7787 17.119 18.3301 17.3294 18.762 17.7118C19.1938 18.0942 19.4774 18.6232 19.5611 19.2023H20.689C20.9043 19.202 21.1107 19.1141 21.263 18.9579ZM18.3326 9.73646C18.2296 9.69001 18.1183 9.66596 18.0059 9.66585H13.6973V12.6785H21.0573L18.6042 9.93574C18.528 9.85077 18.4355 9.78291 18.3326 9.73646Z"/>
</mask>
<path fill-rule="evenodd" clip-rule="evenodd" d="M4.19727 6H2.70555C2.30567 6.00047 1.9223 6.16372 1.63954 6.45393C1.35678 6.74414 1.19773 7.13761 1.19727 7.54803V18.3687C1.19773 18.7792 1.35678 19.1726 1.63954 19.4628C1.9223 19.753 2.30567 19.9163 2.70555 19.9168H3.83346C3.91708 20.4958 4.20068 21.0248 4.63256 21.4072C5.06444 21.7896 5.61583 22 6.18622 22C6.7566 22 7.30799 21.7896 7.73987 21.4072C8.17175 21.0248 8.45535 20.4958 8.53897 19.9168H14.8556C14.9392 20.4958 15.2228 21.0248 15.6547 21.4072C16.0865 21.7896 16.6379 22 17.2083 22C17.7787 22 18.3301 21.7896 18.762 21.4072C19.1938 21.0248 19.4774 20.4958 19.5611 19.9168H20.689C21.0889 19.9163 21.4722 19.753 21.755 19.4628C22.0378 19.1726 22.1968 18.7792 22.1973 18.3687V13.0358C22.1972 13.0195 22.196 13.0032 22.1937 12.9871L22.1923 12.9781C22.1892 12.9582 22.1844 12.9386 22.178 12.9195L22.1752 12.9115C22.1682 12.8923 22.1597 12.8737 22.1496 12.8559L22.1452 12.8486C22.1344 12.8305 22.1219 12.8134 22.1081 12.7976L22.1056 12.7942L19.1171 9.45222C18.9756 9.29439 18.8039 9.16836 18.6126 9.08208C18.4214 8.99579 18.2148 8.95113 18.0059 8.9509H13.6973V7.54803C13.6968 7.13761 13.5377 6.74414 13.255 6.45393C12.9722 6.16372 12.5889 6.00047 12.189 6H10.6973V6.71447H12.189C12.4043 6.71473 12.6107 6.80263 12.763 6.95889C12.9152 7.11516 13.0009 7.32703 13.0011 7.54803V19.2023H8.53897C8.45535 18.6232 8.17175 18.0942 7.73987 17.7118C7.30799 17.3294 6.7566 17.119 6.18622 17.119C5.61583 17.119 5.06444 17.3294 4.63256 17.7118C4.20068 18.0942 3.91708 18.6232 3.83346 19.2023H2.70555C2.49023 19.202 2.2838 19.1141 2.13154 18.9579C1.97929 18.8016 1.89364 18.5897 1.8934 18.3687V7.54803C1.89364 7.32703 1.97929 7.11516 2.13154 6.95889C2.2838 6.80263 2.49023 6.71473 2.70555 6.71447H4.19727V6ZM5.25157 20.9952C5.52822 21.1849 5.85348 21.2862 6.18622 21.2862C6.63224 21.2856 7.05985 21.1036 7.37524 20.7799C7.69062 20.4562 7.86803 20.0173 7.86854 19.5595C7.86854 19.218 7.76987 18.8842 7.58501 18.6003C7.40016 18.3163 7.13742 18.095 6.83001 17.9643C6.52261 17.8336 6.18435 17.7994 5.85801 17.8661C5.53167 17.9327 5.23191 18.0971 4.99664 18.3386C4.76136 18.5801 4.60113 18.8877 4.53622 19.2227C4.47131 19.5576 4.50462 19.9048 4.63195 20.2203C4.75929 20.5358 4.97491 20.8055 5.25157 20.9952ZM16.2737 20.9952C16.5503 21.1849 16.8756 21.2862 17.2083 21.2862C17.6543 21.2856 18.082 21.1036 18.3973 20.7799C18.7127 20.4562 18.8901 20.0173 18.8906 19.5595C18.8906 19.218 18.792 18.8842 18.6071 18.6003C18.4223 18.3163 18.1595 18.095 17.8521 17.9643C17.5447 17.8336 17.2064 17.7994 16.8801 17.8661C16.5538 17.9327 16.254 18.0971 16.0187 18.3386C15.7835 18.5801 15.6232 18.8877 15.5583 19.2227C15.4934 19.5576 15.5267 19.9048 15.6541 20.2203C15.7814 20.5358 15.997 20.8055 16.2737 20.9952ZM21.263 18.9579C21.4152 18.8016 21.5009 18.5897 21.5011 18.3687V13.393H13.6973V19.2023H14.8556C14.9392 18.6232 15.2228 18.0942 15.6547 17.7118C16.0865 17.3294 16.6379 17.119 17.2083 17.119C17.7787 17.119 18.3301 17.3294 18.762 17.7118C19.1938 18.0942 19.4774 18.6232 19.5611 19.2023H20.689C20.9043 19.202 21.1107 19.1141 21.263 18.9579ZM18.3326 9.73646C18.2296 9.69001 18.1183 9.66596 18.0059 9.66585H13.6973V12.6785H21.0573L18.6042 9.93574C18.528 9.85077 18.4355 9.78291 18.3326 9.73646Z" fill="white"/>
<path d="M4.19727 6H4.49727V5.7H4.19727V6ZM2.70555 6V5.7L2.7052 5.7L2.70555 6ZM1.19727 7.54803L0.897266 7.54769V7.54803H1.19727ZM1.19727 18.3687H0.897265L0.897266 18.3691L1.19727 18.3687ZM2.70555 19.9168L2.7052 20.2168H2.70555V19.9168ZM3.83346 19.9168L4.13038 19.8739L4.09325 19.6168H3.83346V19.9168ZM8.53897 19.9168V19.6168H8.27918L8.24205 19.8739L8.53897 19.9168ZM14.8556 19.9168L15.1525 19.8739L15.1154 19.6168H14.8556V19.9168ZM19.5611 19.9168V19.6168H19.3013L19.2641 19.8739L19.5611 19.9168ZM20.689 19.9168V20.2168H20.6893L20.689 19.9168ZM22.1973 18.3687L22.4973 18.3691V18.3687H22.1973ZM22.1973 13.0358H22.4973L22.4973 13.0337L22.1973 13.0358ZM22.1937 12.9871L22.4907 12.945L22.4904 12.943L22.1937 12.9871ZM22.1923 12.9781L22.4891 12.934L22.4887 12.9316L22.1923 12.9781ZM22.178 12.9195L22.4624 12.8239L22.4606 12.8188L22.178 12.9195ZM22.1752 12.9115L22.4578 12.8109L22.4574 12.8098L22.1752 12.9115ZM22.1496 12.8559L22.4105 12.7077L22.4074 12.7026L22.1496 12.8559ZM22.1452 12.8486L22.4031 12.6953L22.4024 12.6942L22.1452 12.8486ZM22.1081 12.7976L21.8664 12.9753L21.8739 12.9856L21.8823 12.9952L22.1081 12.7976ZM22.1056 12.7942L22.3473 12.6166L22.3388 12.605L22.3292 12.5943L22.1056 12.7942ZM19.1171 9.45222L19.3407 9.25224L19.3405 9.25202L19.1171 9.45222ZM18.0059 8.9509L18.0062 8.6509H18.0059V8.9509ZM13.6973 8.9509H13.3973V9.2509H13.6973V8.9509ZM13.6973 7.54803H13.9973V7.54769L13.6973 7.54803ZM12.189 6L12.1893 5.7H12.189V6ZM10.6973 6V5.7H10.3973V6H10.6973ZM10.6973 6.71447H10.3973V7.01447H10.6973V6.71447ZM12.189 6.71447L12.1893 6.41447H12.189V6.71447ZM12.763 6.95889L12.5481 7.16825L12.763 6.95889ZM13.0011 7.54803H13.3011V7.54769L13.0011 7.54803ZM13.0011 19.2023V19.5023H13.3011V19.2023H13.0011ZM8.53897 19.2023L8.24205 19.2452L8.27918 19.5023H8.53897V19.2023ZM3.83346 19.2023V19.5023H4.09325L4.13038 19.2452L3.83346 19.2023ZM2.70555 19.2023L2.7052 19.5023H2.70555V19.2023ZM1.8934 18.3687H1.5934L1.5934 18.3691L1.8934 18.3687ZM1.8934 7.54803L1.5934 7.54769V7.54803H1.8934ZM2.13154 6.95889L2.34642 7.16825L2.13154 6.95889ZM2.70555 6.71447V6.41447L2.7052 6.41447L2.70555 6.71447ZM4.19727 6.71447V7.01447H4.49727V6.71447H4.19727ZM6.18622 21.2862V21.5862H6.18656L6.18622 21.2862ZM7.86854 19.5595L8.16854 19.5599V19.5595H7.86854ZM17.2083 21.2862V21.5862H17.2087L17.2083 21.2862ZM18.8906 19.5595L19.1906 19.5599V19.5595H18.8906ZM16.8801 17.8661L16.8201 17.5721L16.8801 17.8661ZM21.5011 18.3687L21.8011 18.3691V18.3687H21.5011ZM21.5011 13.393H21.8011V13.093H21.5011V13.393ZM13.6973 13.393V13.093H13.3973V13.393H13.6973ZM13.6973 19.2023H13.3973V19.5023H13.6973V19.2023ZM14.8556 19.2023V19.5023H15.1154L15.1525 19.2452L14.8556 19.2023ZM19.5611 19.2023L19.2641 19.2452L19.3013 19.5023H19.5611V19.2023ZM20.689 19.2023V19.5023H20.6893L20.689 19.2023ZM18.0059 9.66585L18.0062 9.36585H18.0059V9.66585ZM13.6973 9.66585V9.36585H13.3973V9.66585H13.6973ZM13.6973 12.6785H13.3973V12.9785H13.6973V12.6785ZM21.0573 12.6785V12.9785H21.7281L21.2809 12.4786L21.0573 12.6785ZM18.6042 9.93574L18.8278 9.73575L18.8276 9.73552L18.6042 9.93574ZM4.19727 5.7H2.70555V6.3H4.19727V5.7ZM2.7052 5.7C2.22332 5.70057 1.76297 5.89736 1.42467 6.24457L1.85441 6.66329C2.08163 6.43008 2.38802 6.30038 2.70591 6.3L2.7052 5.7ZM1.42467 6.24457C1.08663 6.59152 0.897813 7.0603 0.897266 7.54769L1.49727 7.54836C1.49764 7.21492 1.62694 6.89675 1.85441 6.66329L1.42467 6.24457ZM0.897266 7.54803V18.3687H1.49727V7.54803H0.897266ZM0.897266 18.3691C0.897813 18.8565 1.08663 19.3252 1.42467 19.6722L1.85441 19.2535C1.62694 19.02 1.49764 18.7018 1.49727 18.3684L0.897266 18.3691ZM1.42467 19.6722C1.76297 20.0194 2.22332 20.2162 2.7052 20.2168L2.70591 19.6168C2.38802 19.6164 2.08163 19.4867 1.85441 19.2535L1.42467 19.6722ZM2.70555 20.2168H3.83346V19.6168H2.70555V20.2168ZM3.53654 19.9596C3.63015 20.6079 3.94782 21.2016 4.43368 21.6318L4.83144 21.1826C4.45354 20.848 4.20402 20.3838 4.13038 19.8739L3.53654 19.9596ZM4.43368 21.6318C4.91974 22.0622 5.54164 22.3 6.18622 22.3V21.7C5.69002 21.7 5.20914 21.517 4.83144 21.1826L4.43368 21.6318ZM6.18622 22.3C6.83079 22.3 7.4527 22.0622 7.93875 21.6318L7.54099 21.1826C7.16329 21.517 6.68242 21.7 6.18622 21.7V22.3ZM7.93875 21.6318C8.42461 21.2016 8.74228 20.6079 8.83589 19.9596L8.24205 19.8739C8.16842 20.3838 7.91889 20.848 7.54099 21.1826L7.93875 21.6318ZM8.53897 20.2168H14.8556V19.6168H8.53897V20.2168ZM14.5586 19.9596C14.6523 20.6079 14.9699 21.2016 15.4558 21.6318L15.8535 21.1826C15.4756 20.848 15.2261 20.3838 15.1525 19.8739L14.5586 19.9596ZM15.4558 21.6318C15.9418 22.0622 16.5637 22.3 17.2083 22.3V21.7C16.7121 21.7 16.2312 21.517 15.8535 21.1826L15.4558 21.6318ZM17.2083 22.3C17.8529 22.3 18.4748 22.0622 18.9608 21.6318L18.5631 21.1826C18.1854 21.517 17.7045 21.7 17.2083 21.7V22.3ZM18.9608 21.6318C19.4467 21.2016 19.7644 20.6079 19.858 19.9596L19.2641 19.8739C19.1905 20.3838 18.941 20.848 18.5631 21.1826L18.9608 21.6318ZM19.5611 20.2168H20.689V19.6168H19.5611V20.2168ZM20.6893 20.2168C21.1712 20.2162 21.6316 20.0194 21.9699 19.6722L21.5401 19.2535C21.3129 19.4867 21.0065 19.6164 20.6886 19.6168L20.6893 20.2168ZM21.9699 19.6722C22.3079 19.3252 22.4967 18.8565 22.4973 18.3691L21.8973 18.3684C21.8969 18.7018 21.7676 19.02 21.5401 19.2535L21.9699 19.6722ZM22.4973 18.3687V13.0358H21.8973V18.3687H22.4973ZM22.4973 13.0337C22.4971 13.0041 22.4949 12.9744 22.4907 12.945L21.8966 13.0292C21.897 13.032 21.8973 13.0349 21.8973 13.0378L22.4973 13.0337ZM22.4904 12.943L22.4891 12.934L21.8956 13.0222L21.8969 13.0311L22.4904 12.943ZM22.4887 12.9316C22.483 12.8951 22.4742 12.859 22.4624 12.8239L21.8937 13.0151C21.8947 13.0181 21.8954 13.0213 21.896 13.0246L22.4887 12.9316ZM22.4606 12.8188L22.4578 12.8109L21.8926 13.0122L21.8954 13.0202L22.4606 12.8188ZM22.4574 12.8098C22.4447 12.7745 22.429 12.7404 22.4104 12.7077L21.8887 13.0041C21.8904 13.0069 21.8918 13.01 21.8929 13.0132L22.4574 12.8098ZM22.4074 12.7026L22.4031 12.6953L21.8874 13.0019L21.8917 13.0092L22.4074 12.7026ZM22.4024 12.6942C22.3824 12.6609 22.3595 12.6294 22.3339 12.6001L21.8823 12.9952C21.8844 12.9975 21.8863 13.0001 21.888 13.003L22.4024 12.6942ZM22.3498 12.6199L22.3473 12.6166L21.8639 12.9719L21.8664 12.9753L22.3498 12.6199ZM22.3292 12.5943L19.3407 9.25224L18.8934 9.6522L21.882 12.9942L22.3292 12.5943ZM19.3405 9.25202C19.1715 9.06339 18.9657 8.91227 18.736 8.80862L18.4893 9.35554C18.642 9.42446 18.7798 9.5254 18.8936 9.65242L19.3405 9.25202ZM18.736 8.80862C18.5062 8.70496 18.2577 8.65117 18.0062 8.6509L18.0055 9.2509C18.1718 9.25108 18.3365 9.28662 18.4893 9.35554L18.736 8.80862ZM18.0059 8.6509H13.6973V9.2509H18.0059V8.6509ZM13.9973 8.9509V7.54803H13.3973V8.9509H13.9973ZM13.9973 7.54769C13.9967 7.0603 13.8079 6.59152 13.4699 6.24457L13.0401 6.66329C13.2676 6.89675 13.3969 7.21492 13.3973 7.54836L13.9973 7.54769ZM13.4699 6.24457C13.1316 5.89736 12.6712 5.70057 12.1893 5.7L12.1886 6.3C12.5065 6.30038 12.8129 6.43008 13.0401 6.66329L13.4699 6.24457ZM12.189 5.7H10.6973V6.3H12.189V5.7ZM10.3973 6V6.71447H10.9973V6H10.3973ZM10.6973 7.01447H12.189V6.41447H10.6973V7.01447ZM12.1886 7.01447C12.3219 7.01463 12.4514 7.06899 12.5481 7.16825L12.9778 6.74954C12.7701 6.53627 12.4866 6.41482 12.1893 6.41447L12.1886 7.01447ZM12.5481 7.16825C12.6451 7.26778 12.701 7.40434 12.7011 7.54836L13.3011 7.54769C13.3008 7.24973 13.1854 6.96255 12.9778 6.74954L12.5481 7.16825ZM12.7011 7.54803V19.2023H13.3011V7.54803H12.7011ZM13.0011 18.9023H8.53897V19.5023H13.0011V18.9023ZM8.83589 19.1594C8.74228 18.5112 8.42461 17.9174 7.93875 17.4872L7.54099 17.9364C7.91889 18.271 8.16842 18.7352 8.24205 19.2452L8.83589 19.1594ZM7.93875 17.4872C7.4527 17.0569 6.83079 16.819 6.18622 16.819V17.419C6.68242 17.419 7.16329 17.602 7.54099 17.9364L7.93875 17.4872ZM6.18622 16.819C5.54164 16.819 4.91974 17.0569 4.43368 17.4872L4.83144 17.9364C5.20914 17.602 5.69002 17.419 6.18622 17.419V16.819ZM4.43368 17.4872C3.94782 17.9174 3.63015 18.5112 3.53654 19.1594L4.13038 19.2452C4.20402 18.7352 4.45354 18.271 4.83144 17.9364L4.43368 17.4872ZM3.83346 18.9023H2.70555V19.5023H3.83346V18.9023ZM2.7059 18.9023C2.57258 18.9021 2.44313 18.8478 2.34642 18.7485L1.91667 19.1672C2.12447 19.3805 2.40789 19.5019 2.7052 19.5023L2.7059 18.9023ZM2.34642 18.7485C2.24944 18.649 2.19356 18.5124 2.1934 18.3684L1.5934 18.3691C1.59373 18.667 1.70913 18.9542 1.91667 19.1672L2.34642 18.7485ZM2.1934 18.3687V7.54803H1.5934V18.3687H2.1934ZM2.1934 7.54836C2.19356 7.40434 2.24944 7.26778 2.34642 7.16825L1.91667 6.74954C1.70913 6.96255 1.59373 7.24973 1.5934 7.54769L2.1934 7.54836ZM2.34642 7.16825C2.44313 7.06899 2.57258 7.01463 2.7059 7.01447L2.7052 6.41447C2.40788 6.41482 2.12447 6.53627 1.91667 6.74954L2.34642 7.16825ZM2.70555 7.01447H4.19727V6.41447H2.70555V7.01447ZM4.49727 6.71447V6H3.89727V6.71447H4.49727ZM6.18622 20.9862C5.91458 20.9862 5.64838 20.9035 5.42124 20.7478L5.0819 21.2426C5.40807 21.4663 5.79239 21.5862 6.18622 21.5862V20.9862ZM7.16036 20.5705C6.90052 20.8372 6.54989 20.9857 6.18587 20.9862L6.18656 21.5862C6.71458 21.5856 7.21918 21.3699 7.59011 20.9892L7.16036 20.5705ZM7.56854 19.5592C7.56811 19.94 7.42047 20.3036 7.16036 20.5705L7.59011 20.9892C7.96078 20.6088 8.16794 20.0946 8.16854 19.5599L7.56854 19.5592ZM7.3336 18.7639C7.48648 18.9988 7.56854 19.2756 7.56854 19.5595H8.16854C8.16854 19.1604 8.05326 18.7696 7.83643 18.4366L7.3336 18.7639ZM6.71264 18.2404C6.96436 18.3474 7.18077 18.5292 7.3336 18.7639L7.83643 18.4366C7.61955 18.1034 7.31048 17.8426 6.94738 17.6882L6.71264 18.2404ZM5.91802 18.16C6.18461 18.1056 6.46102 18.1334 6.71264 18.2404L6.94738 17.6882C6.5842 17.5338 6.18409 17.4933 5.798 17.5721L5.91802 18.16ZM5.21151 18.548C5.40536 18.349 5.65138 18.2144 5.91802 18.16L5.798 17.5721C5.41197 17.6509 5.05847 17.8452 4.78176 18.1292L5.21151 18.548ZM4.83074 19.2798C4.88466 19.0015 5.01758 18.747 5.21151 18.548L4.78176 18.1292C4.50514 18.4132 4.3176 18.7739 4.2417 19.1656L4.83074 19.2798ZM4.91015 20.108C4.80456 19.8464 4.77681 19.558 4.83074 19.2798L4.2417 19.1656C4.1658 19.5572 4.20469 19.9632 4.35376 20.3326L4.91015 20.108ZM5.42124 20.7478C5.194 20.5919 5.01572 20.3696 4.91015 20.108L4.35376 20.3326C4.50285 20.702 4.75583 21.019 5.0819 21.2426L5.42124 20.7478ZM17.2083 20.9862C16.9367 20.9862 16.6705 20.9035 16.4433 20.7478L16.104 21.2426C16.4302 21.4663 16.8145 21.5862 17.2083 21.5862V20.9862ZM18.1825 20.5705C17.9226 20.8372 17.572 20.9857 17.208 20.9862L17.2087 21.5862C17.7367 21.5856 18.2413 21.3699 18.6122 20.9892L18.1825 20.5705ZM18.5906 19.5592C18.5902 19.94 18.4426 20.3036 18.1825 20.5705L18.6122 20.9892C18.9829 20.6088 19.19 20.0946 19.1906 19.5599L18.5906 19.5592ZM18.3557 18.7639C18.5086 18.9988 18.5906 19.2756 18.5906 19.5595H19.1906C19.1906 19.1604 19.0754 18.7696 18.8585 18.4366L18.3557 18.7639ZM17.7347 18.2404C17.9865 18.3474 18.2029 18.5292 18.3557 18.7639L18.8585 18.4366C18.6416 18.1034 18.3326 17.8426 17.9695 17.6882L17.7347 18.2404ZM16.9401 18.16C17.2067 18.1056 17.4831 18.1334 17.7347 18.2404L17.9695 17.6882C17.6063 17.5338 17.2062 17.4933 16.8201 17.5721L16.9401 18.16ZM16.2336 18.548C16.4275 18.349 16.6735 18.2144 16.9401 18.16L16.8201 17.5721C16.4341 17.6509 16.0806 17.8452 15.8039 18.1292L16.2336 18.548ZM15.8528 19.2798C15.9068 19.0015 16.0397 18.747 16.2336 18.548L15.8039 18.1292C15.5272 18.4132 15.3397 18.7739 15.2638 19.1656L15.8528 19.2798ZM15.9323 20.108C15.8267 19.8464 15.7989 19.558 15.8528 19.2798L15.2638 19.1656C15.1879 19.5572 15.2268 19.9632 15.3759 20.3326L15.9323 20.108ZM16.4433 20.7478C16.2161 20.5919 16.0378 20.3696 15.9323 20.108L15.3759 20.3326C15.5249 20.702 15.7779 21.019 16.104 21.2426L16.4433 20.7478ZM21.2011 18.3684C21.201 18.5124 21.1451 18.649 21.0481 18.7485L21.4779 19.1672C21.6854 18.9542 21.8008 18.667 21.8011 18.3691L21.2011 18.3684ZM21.2011 13.393V18.3687H21.8011V13.393H21.2011ZM13.6973 13.693H21.5011V13.093H13.6973V13.693ZM13.9973 19.2023V13.393H13.3973V19.2023H13.9973ZM14.8556 18.9023H13.6973V19.5023H14.8556V18.9023ZM15.4558 17.4872C14.9699 17.9174 14.6523 18.5112 14.5586 19.1594L15.1525 19.2452C15.2261 18.7352 15.4756 18.271 15.8535 17.9364L15.4558 17.4872ZM17.2083 16.819C16.5637 16.819 15.9418 17.0569 15.4558 17.4872L15.8535 17.9364C16.2312 17.602 16.7121 17.419 17.2083 17.419V16.819ZM18.9608 17.4872C18.4748 17.0569 17.8529 16.819 17.2083 16.819V17.419C17.7045 17.419 18.1854 17.602 18.5631 17.9364L18.9608 17.4872ZM19.858 19.1594C19.7644 18.5112 19.4467 17.9174 18.9608 17.4872L18.5631 17.9364C18.941 18.271 19.1905 18.7352 19.2641 19.2452L19.858 19.1594ZM20.689 18.9023H19.5611V19.5023H20.689V18.9023ZM21.0481 18.7485C20.9514 18.8478 20.822 18.9021 20.6886 18.9023L20.6893 19.5023C20.9866 19.5019 21.2701 19.3805 21.4779 19.1672L21.0481 18.7485ZM18.0055 9.96585C18.0754 9.96592 18.1447 9.98084 18.2092 10.0099L18.4559 9.463C18.3144 9.39917 18.1613 9.36601 18.0062 9.36585L18.0055 9.96585ZM13.6973 9.96585H18.0059V9.36585H13.6973V9.96585ZM13.9973 12.6785V9.66585H13.3973V12.6785H13.9973ZM21.0573 12.3785H13.6973V12.9785H21.0573V12.3785ZM18.3806 10.1357L20.8337 12.8785L21.2809 12.4786L18.8278 9.73575L18.3806 10.1357ZM18.2092 10.0099C18.2737 10.039 18.3322 10.0818 18.3808 10.136L18.8276 9.73552C18.7238 9.61975 18.5974 9.52681 18.4559 9.463L18.2092 10.0099Z" fill="white" mask="url(#path-1-outside-1)"/>
</g>
<defs>
<clipPath id="clip0">
<rect width="24" height="24" fill="white" transform="translate(0.197266)"/>
</clipPath>
</defs>
</svg>
